<svg xmlns="http://www.w3.org/2000/svg" xmlns:xlink="http://www.w3.org/1999/xlink" width="800" zoomAndPan="magnify" viewBox="0 0 600 599.999999" height="800" preserveAspectRatio="xMidYMid meet" version="1.0"><defs><g/><clipPath id="7c5c477b83"><path d="M 120 420 L 229 420 L 229 562.558594 L 120 562.558594 Z M 120 420 " clip-rule="nonzero"/></clipPath></defs><g fill="#000000" fill-opacity="1"><g transform="translate(57.600003, 93.470458)"><g><path d="M 16.171875 -40.5 C 16.328125 -40.945312 16.664062 -40.96875 17.1875 -40.5625 C 17.53125 -40.257812 17.738281 -39.878906 17.8125 -39.421875 C 17.894531 -39.046875 17.988281 -38.859375 18.09375 -38.859375 C 18.207031 -38.859375 18.265625 -38.613281 18.265625 -38.125 L 18.375 -37.5 C 18.414062 -37.5 18.492188 -37.578125 18.609375 -37.734375 C 18.796875 -38.023438 18.890625 -38.363281 18.890625 -38.75 L 18.890625 -39.375 L 19.171875 -38.796875 C 19.359375 -38.378906 19.414062 -37.875 19.34375 -37.28125 C 19.195312 -36.59375 19.195312 -36.25 19.34375 -36.25 C 19.5 -36.25 20.175781 -36.515625 21.375 -37.046875 C 22.582031 -37.578125 23.28125 -37.84375 23.46875 -37.84375 C 23.582031 -37.84375 23.359375 -37.632812 22.796875 -37.21875 C 22.722656 -37.101562 22.628906 -37.007812 22.515625 -36.9375 C 21.679688 -36.375 21.300781 -36.015625 21.375 -35.859375 C 21.414062 -35.785156 20.8125 -35.125 19.5625 -33.875 C 18.320312 -32.632812 17.476562 -31.863281 17.03125 -31.5625 C 16.6875 -31.332031 16.097656 -31.3125 15.265625 -31.5 C 14.140625 -31.6875 13.378906 -31.882812 12.984375 -32.09375 C 12.585938 -32.300781 12.3125 -32.632812 12.15625 -33.09375 C 12.082031 -33.46875 12.070312 -33.738281 12.125 -33.90625 C 12.1875 -34.070312 12.441406 -34.476562 12.890625 -35.125 C 13.347656 -35.726562 13.972656 -36.671875 14.765625 -37.953125 C 15.554688 -39.234375 16.023438 -40.082031 16.171875 -40.5 Z M 35.0625 -11.203125 C 35.289062 -11.390625 34.988281 -11.40625 34.15625 -11.25 C 33.9375 -11.21875 33.691406 -11.164062 33.421875 -11.09375 C 32.523438 -10.894531 31.429688 -10.664062 30.140625 -10.40625 C 28.753906 -10.101562 28.0625 -9.914062 28.0625 -9.84375 C 28.0625 -9.726562 28.40625 -9.53125 29.09375 -9.25 C 29.789062 -8.96875 30.253906 -8.828125 30.484375 -8.828125 C 30.554688 -8.828125 31.300781 -9.191406 32.71875 -9.921875 C 34.132812 -10.660156 34.914062 -11.085938 35.0625 -11.203125 Z M 28.109375 -41.859375 C 27.960938 -42.378906 27.960938 -42.640625 28.109375 -42.640625 C 28.335938 -42.640625 29.347656 -42.023438 31.140625 -40.796875 C 32.929688 -39.578125 33.863281 -38.875 33.9375 -38.6875 C 34.050781 -38.457031 33.832031 -38.15625 33.28125 -37.78125 C 32.738281 -37.40625 31.5625 -36.726562 29.75 -35.75 C 27.75 -34.726562 26.335938 -33.992188 25.515625 -33.546875 C 24.941406 -33.203125 24.65625 -33.066406 24.65625 -33.140625 C 24.65625 -33.222656 25.429688 -33.828125 26.984375 -34.953125 C 28.378906 -36.015625 29.035156 -36.5625 28.953125 -36.59375 C 28.734375 -36.519531 28.566406 -36.484375 28.453125 -36.484375 C 28.335938 -36.484375 27.335938 -35.75 25.453125 -34.28125 C 23.523438 -32.769531 22.46875 -31.976562 22.28125 -31.90625 C 21.90625 -31.675781 21.925781 -31.597656 22.34375 -31.671875 C 22.976562 -31.742188 24.882812 -32.21875 28.0625 -33.09375 C 31.976562 -34.101562 34.125 -34.707031 34.5 -34.90625 C 34.84375 -35.007812 35.257812 -34.945312 35.75 -34.71875 C 36.238281 -34.5 36.671875 -34.144531 37.046875 -33.65625 C 37.390625 -33.28125 37.671875 -33.09375 37.890625 -33.09375 C 38.046875 -33.09375 38.265625 -33.046875 38.546875 -32.953125 C 38.828125 -32.859375 39.070312 -32.742188 39.28125 -32.609375 C 39.488281 -32.472656 39.570312 -32.367188 39.53125 -32.296875 C 39.5 -32.109375 39.144531 -32.015625 38.46875 -32.015625 C 37.675781 -31.972656 34.222656 -31.144531 28.109375 -29.53125 C 26.523438 -29.070312 25.695312 -28.828125 25.625 -28.796875 C 25.625 -28.753906 25.648438 -28.722656 25.703125 -28.703125 C 25.765625 -28.679688 25.847656 -28.632812 25.953125 -28.5625 C 26.066406 -28.488281 26.203125 -28.429688 26.359375 -28.390625 C 26.804688 -28.128906 27.03125 -27.941406 27.03125 -27.828125 C 27.070312 -27.785156 27.09375 -27.707031 27.09375 -27.59375 C 27.09375 -27.488281 27.113281 -27.414062 27.15625 -27.375 C 27.15625 -27.1875 27.265625 -27.101562 27.484375 -27.125 C 27.710938 -27.144531 28.28125 -27.304688 29.1875 -27.609375 L 30.765625 -28.21875 L 31.84375 -27.4375 C 32.75 -26.71875 33.351562 -26.242188 33.65625 -26.015625 C 34.144531 -25.640625 34.390625 -25.414062 34.390625 -25.34375 C 34.390625 -25.226562 34.050781 -25.132812 33.375 -25.0625 C 32.613281 -24.976562 31.21875 -24.597656 29.1875 -23.921875 L 26.015625 -22.84375 L 25.5625 -21.375 C 25.1875 -20.394531 25.035156 -19.890625 25.109375 -19.859375 C 25.191406 -19.742188 25.984375 -19.945312 27.484375 -20.46875 C 28.992188 -20.925781 29.804688 -21.15625 29.921875 -21.15625 C 29.992188 -21.15625 30.460938 -21.320312 31.328125 -21.65625 L 32.640625 -22.171875 L 33.265625 -21.71875 C 33.671875 -21.488281 34.046875 -21.207031 34.390625 -20.875 C 34.691406 -20.53125 35.203125 -20.191406 35.921875 -19.859375 C 36.597656 -19.554688 37.007812 -19.269531 37.15625 -19 C 37.269531 -18.78125 37.195312 -18.648438 36.9375 -18.609375 C 36.75 -18.566406 36.351562 -18.53125 35.75 -18.5 C 34.394531 -18.414062 31.359375 -17.625 26.640625 -16.125 L 23.984375 -15.265625 L 23.59375 -14.078125 C 23.363281 -13.328125 23.285156 -12.914062 23.359375 -12.84375 C 23.398438 -12.757812 24.4375 -12.96875 26.46875 -13.46875 C 30.582031 -14.445312 34.257812 -15.253906 37.5 -15.890625 C 39.238281 -16.234375 40.351562 -16.476562 40.84375 -16.625 C 41.25 -16.738281 41.546875 -16.773438 41.734375 -16.734375 C 41.929688 -16.703125 42.234375 -16.554688 42.640625 -16.296875 C 43.359375 -15.878906 43.984375 -15.40625 44.515625 -14.875 C 45.148438 -14.3125 45.660156 -13.953125 46.046875 -13.796875 C 46.566406 -13.609375 47.046875 -13.332031 47.484375 -12.96875 C 47.921875 -12.613281 48.140625 -12.363281 48.140625 -12.21875 C 48.140625 -11.957031 47.894531 -11.785156 47.40625 -11.703125 C 44.15625 -11.179688 40.910156 -10.523438 37.671875 -9.734375 C 34.953125 -9.015625 33.21875 -8.617188 32.46875 -8.546875 C 32.007812 -8.503906 31.765625 -8.445312 31.734375 -8.375 C 31.691406 -8.332031 31.738281 -8.28125 31.875 -8.21875 C 32.007812 -8.164062 32.1875 -8.082031 32.40625 -7.96875 C 32.632812 -7.863281 32.878906 -7.734375 33.140625 -7.578125 C 33.441406 -7.429688 34.054688 -7.148438 34.984375 -6.734375 C 35.910156 -6.316406 36.578125 -6.015625 36.984375 -5.828125 C 38.648438 -5.066406 40.3125 -4.273438 41.96875 -3.453125 C 43.78125 -2.546875 44.816406 -2.070312 45.078125 -2.03125 C 45.304688 -1.957031 45.4375 -1.828125 45.46875 -1.640625 C 45.507812 -1.453125 45.507812 -0.867188 45.46875 0.109375 C 45.4375 1.429688 45.328125 2.164062 45.140625 2.3125 C 44.984375 2.425781 44.890625 3.066406 44.859375 4.234375 C 44.859375 5.523438 44.753906 6.234375 44.546875 6.359375 C 44.335938 6.492188 43.722656 6.28125 42.703125 5.71875 C 36.785156 2.507812 33.5625 0.71875 33.03125 0.34375 C 32.769531 0.15625 32.789062 0.113281 33.09375 0.21875 C 33.800781 0.375 34.164062 0.429688 34.1875 0.390625 C 34.207031 0.359375 33.878906 0.171875 33.203125 -0.171875 C 32.148438 -0.703125 31.019531 -1.191406 29.8125 -1.640625 C 28.34375 -2.171875 27.644531 -2.472656 27.71875 -2.546875 C 27.75 -2.546875 27.914062 -2.507812 28.21875 -2.4375 C 32.101562 -1.53125 34.160156 -1.078125 34.390625 -1.078125 C 34.578125 -1.078125 34.582031 -1.171875 34.40625 -1.359375 C 34.238281 -1.546875 34.101562 -1.640625 34 -1.640625 C 33.882812 -1.640625 32.523438 -2.300781 29.921875 -3.625 C 28.148438 -4.445312 26.328125 -5.265625 24.453125 -6.078125 C 22.585938 -6.890625 21.617188 -7.257812 21.546875 -7.1875 C 21.546875 -7.1875 21.226562 -6.335938 20.59375 -4.640625 C 20.0625 -3.171875 19.578125 -2.09375 19.140625 -1.40625 C 18.710938 -0.726562 18.140625 -0.109375 17.421875 0.453125 C 15.765625 1.617188 13.738281 2.566406 11.34375 3.296875 C 8.945312 4.035156 7.015625 4.253906 5.546875 3.953125 L 4.6875 3.796875 L 5.765625 3.625 C 8.898438 3.132812 11.5625 1.304688 13.75 -1.859375 C 14.238281 -2.578125 14.734375 -3.519531 15.234375 -4.6875 C 15.742188 -5.863281 15.925781 -6.488281 15.78125 -6.5625 C 15.78125 -6.632812 15.003906 -6.390625 13.453125 -5.828125 C 11.910156 -5.265625 10.914062 -4.867188 10.46875 -4.640625 C 9.976562 -4.367188 9.597656 -4.3125 9.328125 -4.46875 C 9.066406 -4.582031 8.75 -4.640625 8.375 -4.640625 C 7.957031 -4.640625 7.710938 -4.710938 7.640625 -4.859375 C 7.597656 -4.972656 7.367188 -5.03125 6.953125 -5.03125 C 6.535156 -5.03125 6.300781 -5.097656 6.25 -5.234375 C 6.195312 -5.367188 6.023438 -5.4375 5.734375 -5.4375 C 5.453125 -5.4375 5.007812 -5.679688 4.40625 -6.171875 C 2.707031 -7.566406 2.109375 -8.300781 2.609375 -8.375 C 2.710938 -8.375 2.914062 -8.351562 3.21875 -8.3125 C 3.894531 -8.195312 4.484375 -8.160156 4.984375 -8.203125 C 5.472656 -8.203125 7.640625 -8.679688 11.484375 -9.640625 C 15.328125 -10.609375 17.328125 -11.164062 17.484375 -11.3125 C 17.628906 -11.425781 17.722656 -11.707031 17.765625 -12.15625 C 17.796875 -12.5 17.765625 -12.695312 17.671875 -12.75 C 17.578125 -12.8125 17.285156 -12.859375 16.796875 -12.890625 C 15.367188 -12.972656 14.050781 -13.710938 12.84375 -15.109375 C 12.050781 -15.972656 11.691406 -16.429688 11.765625 -16.484375 C 11.835938 -16.546875 12.175781 -16.519531 12.78125 -16.40625 C 13.195312 -16.289062 13.554688 -16.257812 13.859375 -16.3125 C 14.160156 -16.375 14.800781 -16.554688 15.78125 -16.859375 C 17.40625 -17.378906 18.359375 -17.742188 18.640625 -17.953125 C 18.921875 -18.160156 19.0625 -18.53125 19.0625 -19.0625 C 19.0625 -19.476562 18.925781 -19.734375 18.65625 -19.828125 C 18.394531 -19.921875 17.90625 -19.875 17.1875 -19.6875 C 16.59375 -19.570312 16.125 -19.609375 15.78125 -19.796875 C 15.4375 -19.984375 14.984375 -20.472656 14.421875 -21.265625 C 13.671875 -22.316406 13.503906 -22.84375 13.921875 -22.84375 C 14.066406 -22.84375 14.269531 -22.804688 14.53125 -22.734375 C 14.914062 -22.585938 15.332031 -22.609375 15.78125 -22.796875 C 16.195312 -23.023438 17.082031 -23.363281 18.4375 -23.8125 L 20.46875 -24.4375 L 20.765625 -25.84375 C 21.023438 -26.820312 21.132812 -27.351562 21.09375 -27.4375 C 20.976562 -27.46875 19.882812 -27.132812 17.8125 -26.4375 C 15.738281 -25.738281 14.550781 -25.28125 14.25 -25.0625 C 14.0625 -24.945312 13.851562 -24.894531 13.625 -24.90625 C 13.40625 -24.925781 12.9375 -25.050781 12.21875 -25.28125 C 10.332031 -25.882812 9.109375 -26.582031 8.546875 -27.375 C 8.273438 -27.75 8.441406 -27.976562 9.046875 -28.0625 C 9.421875 -28.132812 10.441406 -28.378906 12.109375 -28.796875 C 12.628906 -28.984375 13.644531 -29.273438 15.15625 -29.671875 C 16.664062 -30.066406 17.609375 -30.300781 17.984375 -30.375 C 19.566406 -30.820312 20.554688 -31.117188 20.953125 -31.265625 C 21.347656 -31.421875 21.71875 -31.671875 22.0625 -32.015625 C 22.664062 -32.734375 23.472656 -33.796875 24.484375 -35.203125 C 25.503906 -36.617188 26.351562 -37.875 27.03125 -38.96875 C 27.632812 -39.945312 27.984375 -40.578125 28.078125 -40.859375 C 28.171875 -41.148438 28.179688 -41.484375 28.109375 -41.859375 Z M 28.109375 -41.859375 "/></g></g></g><g fill="#000000" fill-opacity="1"><g transform="translate(105.671269, 93.470458)"><g><path d="M 22.734375 -31.734375 C 22.847656 -31.847656 23.117188 -31.804688 23.546875 -31.609375 C 23.984375 -31.421875 24.410156 -31.179688 24.828125 -30.890625 C 25.390625 -30.546875 25.898438 -30.242188 26.359375 -29.984375 C 26.734375 -29.867188 26.976562 -29.753906 27.09375 -29.640625 C 27.207031 -29.523438 27.21875 -29.375 27.125 -29.1875 C 27.03125 -29 26.832031 -28.800781 26.53125 -28.59375 C 26.226562 -28.382812 25.753906 -28.109375 25.109375 -27.765625 C 23.796875 -26.972656 23.097656 -26.539062 23.015625 -26.46875 L 22.34375 -26.015625 L 22.84375 -26.578125 C 23.113281 -26.878906 23.226562 -27.050781 23.1875 -27.09375 C 23.113281 -27.132812 22.8125 -26.925781 22.28125 -26.46875 C 21.675781 -25.90625 21.171875 -25.492188 20.765625 -25.234375 L 19.96875 -24.609375 L 20.359375 -25.234375 C 22.128906 -27.984375 22.921875 -29.867188 22.734375 -30.890625 C 22.660156 -31.378906 22.660156 -31.660156 22.734375 -31.734375 Z M 25.796875 -17.078125 C 25.910156 -17.535156 25.890625 -17.765625 25.734375 -17.765625 C 25.617188 -17.765625 24.84375 -17.375 23.40625 -16.59375 C 21.976562 -15.820312 21.148438 -15.34375 20.921875 -15.15625 C 20.734375 -15.007812 20.429688 -14.878906 20.015625 -14.765625 C 19.753906 -14.765625 19.566406 -14.695312 19.453125 -14.5625 C 19.335938 -14.425781 19.28125 -14.226562 19.28125 -13.96875 C 19.175781 -13.519531 19.140625 -13.253906 19.171875 -13.171875 C 19.242188 -13.140625 20.144531 -13.535156 21.875 -14.359375 C 23.613281 -15.191406 24.675781 -15.738281 25.0625 -16 C 25.363281 -16.269531 25.609375 -16.628906 25.796875 -17.078125 Z M 28.5 -23.359375 C 28.882812 -24.035156 29.035156 -24.429688 28.953125 -24.546875 C 28.921875 -24.617188 28.117188 -24.238281 26.546875 -23.40625 C 24.984375 -22.582031 23.410156 -21.726562 21.828125 -20.84375 C 20.242188 -19.957031 19.453125 -19.457031 19.453125 -19.34375 C 19.453125 -19.300781 19.53125 -19.207031 19.6875 -19.0625 C 19.757812 -18.90625 19.832031 -18.695312 19.90625 -18.4375 C 19.945312 -18.175781 20.175781 -18.175781 20.59375 -18.4375 C 20.851562 -18.550781 21.378906 -18.832031 22.171875 -19.28125 C 23.753906 -20.226562 25.09375 -20.96875 26.1875 -21.5 C 27.050781 -21.90625 27.597656 -22.203125 27.828125 -22.390625 C 28.054688 -22.585938 28.28125 -22.910156 28.5 -23.359375 Z M 40.890625 -25 C 40.929688 -25.039062 40.914062 -25.0625 40.84375 -25.0625 C 40.757812 -25.09375 40.703125 -25.109375 40.671875 -25.109375 C 40.554688 -25.035156 40.5 -25 40.5 -25 C 40.644531 -24.925781 40.773438 -24.925781 40.890625 -25 Z M 40.109375 -25.234375 C 40.140625 -25.265625 40.117188 -25.28125 40.046875 -25.28125 C 39.972656 -25.320312 39.894531 -25.34375 39.8125 -25.34375 C 39.738281 -25.269531 39.703125 -25.210938 39.703125 -25.171875 C 39.859375 -25.097656 39.992188 -25.117188 40.109375 -25.234375 Z M 23.25 -41.515625 C 23.25 -42.117188 23.285156 -42.421875 23.359375 -42.421875 C 23.472656 -42.421875 23.785156 -42.25 24.296875 -41.90625 C 24.804688 -41.570312 25.25 -41.253906 25.625 -40.953125 C 26.070312 -40.535156 26.691406 -40.0625 27.484375 -39.53125 C 28.242188 -39.082031 28.625 -38.78125 28.625 -38.625 C 28.625 -38.476562 28.285156 -38.101562 27.609375 -37.5 C 26.960938 -36.9375 26.660156 -36.597656 26.703125 -36.484375 C 26.804688 -36.328125 27.613281 -36.023438 29.125 -35.578125 C 33.3125 -34.253906 37.007812 -32.96875 40.21875 -31.71875 C 43.425781 -30.476562 45.140625 -29.632812 45.359375 -29.1875 C 45.515625 -28.925781 45.59375 -27.707031 45.59375 -25.53125 C 45.59375 -23.363281 45.535156 -22.242188 45.421875 -22.171875 C 45.234375 -22.171875 44.304688 -22.566406 42.640625 -23.359375 C 40.867188 -24.222656 39.691406 -24.773438 39.109375 -25.015625 C 38.523438 -25.265625 38.222656 -25.414062 38.203125 -25.46875 C 38.179688 -25.53125 38.378906 -25.523438 38.796875 -25.453125 L 39.25 -25.390625 C 39.21875 -25.429688 39.125 -25.472656 38.96875 -25.515625 C 38.59375 -25.660156 38.3125 -25.695312 38.125 -25.625 C 37.9375 -25.625 37.84375 -25.660156 37.84375 -25.734375 C 37.914062 -25.804688 37.835938 -25.898438 37.609375 -26.015625 C 37.347656 -26.128906 36.785156 -26.265625 35.921875 -26.421875 C 34.785156 -26.679688 34.21875 -26.753906 34.21875 -26.640625 C 34.21875 -26.640625 34.253906 -26.582031 34.328125 -26.46875 C 34.554688 -26.238281 34.59375 -25.90625 34.4375 -25.46875 C 34.289062 -25.039062 33.84375 -24.113281 33.09375 -22.6875 C 32.113281 -20.71875 31.320312 -19.035156 30.71875 -17.640625 C 30.226562 -16.546875 29.953125 -15.875 29.890625 -15.625 C 29.835938 -15.382812 29.882812 -15.191406 30.03125 -15.046875 C 30.300781 -14.742188 30.40625 -14.523438 30.34375 -14.390625 C 30.289062 -14.265625 30.054688 -14.125 29.640625 -13.96875 C 29.222656 -13.851562 28.429688 -13.535156 27.265625 -13.015625 C 26.097656 -12.441406 25.566406 -12.210938 25.671875 -12.328125 C 25.710938 -12.398438 26.035156 -12.585938 26.640625 -12.890625 C 26.828125 -13.003906 26.992188 -13.097656 27.140625 -13.171875 C 27.296875 -13.253906 27.398438 -13.332031 27.453125 -13.40625 C 27.515625 -13.476562 27.546875 -13.515625 27.546875 -13.515625 C 27.503906 -13.554688 26.773438 -13.226562 25.359375 -12.53125 C 23.953125 -11.832031 23.25 -11.441406 23.25 -11.359375 C 23.25 -11.285156 23.8125 -11.003906 24.9375 -10.515625 L 26.703125 -9.84375 L 28.21875 -11.140625 C 29.28125 -12.160156 30.359375 -13.085938 31.453125 -13.921875 C 32.359375 -14.710938 32.941406 -15.253906 33.203125 -15.546875 C 33.460938 -15.847656 33.59375 -16.191406 33.59375 -16.578125 C 33.59375 -16.765625 33.640625 -16.859375 33.734375 -16.859375 C 33.828125 -16.859375 34.101562 -16.722656 34.5625 -16.453125 C 35.3125 -16.046875 35.78125 -15.707031 35.96875 -15.4375 C 36.195312 -15.132812 36.40625 -14.984375 36.59375 -14.984375 C 36.820312 -14.984375 37.273438 -14.671875 37.953125 -14.046875 C 38.628906 -13.429688 38.96875 -13.046875 38.96875 -12.890625 C 38.96875 -12.773438 38.835938 -12.644531 38.578125 -12.5 C 38.578125 -12.425781 38.40625 -12.296875 38.0625 -12.109375 C 37.726562 -11.921875 37.265625 -11.632812 36.671875 -11.25 C 36.085938 -10.875 35.550781 -10.535156 35.0625 -10.234375 C 32.988281 -8.878906 31.820312 -8.070312 31.5625 -7.8125 C 31.332031 -7.613281 31.351562 -7.460938 31.625 -7.359375 C 31.726562 -7.273438 31.988281 -7.140625 32.40625 -6.953125 C 36.632812 -5.253906 40.046875 -3.75 42.640625 -2.4375 L 45.59375 -0.96875 L 45.59375 0.34375 C 45.59375 1.207031 45.445312 1.875 45.15625 2.34375 C 44.875 2.8125 44.753906 3.460938 44.796875 4.296875 C 44.867188 5.203125 44.828125 5.738281 44.671875 5.90625 C 44.523438 6.082031 44.132812 6.054688 43.5 5.828125 C 42.59375 5.523438 40.359375 4.503906 36.796875 2.765625 C 33.234375 1.035156 31.488281 0.113281 31.5625 0 C 31.601562 0 31.601562 0 31.5625 0 C 31.519531 0 31.484375 0 31.453125 0 C 31.296875 0.0703125 30.992188 -0.0390625 30.546875 -0.34375 C 30.054688 -0.644531 29.414062 -0.945312 28.625 -1.25 C 27.945312 -1.507812 27.566406 -1.675781 27.484375 -1.75 L 28.171875 -1.703125 C 28.242188 -1.660156 28.316406 -1.640625 28.390625 -1.640625 C 29.109375 -1.484375 30.222656 -1.28125 31.734375 -1.03125 C 33.242188 -0.789062 34.128906 -0.671875 34.390625 -0.671875 C 34.878906 -0.671875 34.859375 -0.84375 34.328125 -1.1875 C 34.109375 -1.300781 33.804688 -1.429688 33.421875 -1.578125 C 32.554688 -1.878906 30.460938 -2.890625 27.140625 -4.609375 C 23.828125 -6.328125 21.285156 -7.710938 19.515625 -8.765625 C 19.054688 -9.023438 18.734375 -9.132812 18.546875 -9.09375 C 18.359375 -9.0625 18.265625 -8.894531 18.265625 -8.59375 C 18.265625 -8.257812 18.097656 -7.242188 17.765625 -5.546875 C 17.460938 -3.804688 17.3125 -2.9375 17.3125 -2.9375 C 17.34375 -2.90625 18.007812 -3.273438 19.3125 -4.046875 C 20.613281 -4.816406 21.453125 -5.351562 21.828125 -5.65625 C 22.890625 -6.375 22.78125 -6 21.5 -4.53125 C 20.507812 -3.320312 20.054688 -2.734375 20.140625 -2.765625 C 20.140625 -2.765625 20.441406 -3.03125 21.046875 -3.5625 C 21.753906 -4.207031 22.128906 -4.507812 22.171875 -4.46875 C 22.171875 -4.394531 22 -4.148438 21.65625 -3.734375 C 21.394531 -3.429688 20.894531 -2.65625 20.15625 -1.40625 C 19.425781 -0.164062 18.796875 1 18.265625 2.09375 C 17.585938 3.445312 17.132812 4.160156 16.90625 4.234375 C 16.71875 4.316406 15.847656 4.242188 14.296875 4.015625 C 12.753906 3.785156 11.910156 3.597656 11.765625 3.453125 C 11.578125 3.296875 11.347656 2.953125 11.078125 2.421875 C 10.816406 1.898438 10.722656 1.601562 10.796875 1.53125 C 10.878906 1.414062 11.109375 1.320312 11.484375 1.25 C 11.898438 1.164062 12.144531 0.972656 12.21875 0.671875 C 12.289062 0.296875 12.476562 -0.8125 12.78125 -2.65625 C 13.457031 -6.195312 13.929688 -8.648438 14.203125 -10.015625 C 15.398438 -16.085938 15.925781 -19.175781 15.78125 -19.28125 C 15.738281 -19.363281 15.550781 -19.5 15.21875 -19.6875 C 14.914062 -19.800781 14.671875 -20.175781 14.484375 -20.8125 C 14.253906 -21.53125 14.253906 -21.890625 14.484375 -21.890625 C 14.554688 -21.890625 14.648438 -21.851562 14.765625 -21.78125 C 15.023438 -21.664062 15.566406 -21.796875 16.390625 -22.171875 C 17.222656 -22.546875 19.828125 -23.789062 24.203125 -25.90625 L 30.65625 -29.125 L 31.28125 -28.734375 C 31.726562 -28.429688 32.085938 -28.128906 32.359375 -27.828125 C 32.691406 -27.378906 33.046875 -27.113281 33.421875 -27.03125 C 33.503906 -27 33.546875 -27 33.546875 -27.03125 C 33.546875 -27.070312 33.523438 -27.09375 33.484375 -27.09375 C 33.410156 -27.207031 33.390625 -27.269531 33.421875 -27.28125 C 33.460938 -27.300781 33.539062 -27.296875 33.65625 -27.265625 C 33.882812 -27.191406 34.523438 -27.113281 35.578125 -27.03125 C 35.878906 -27.03125 36.378906 -26.992188 37.078125 -26.921875 C 37.773438 -26.847656 38.238281 -26.8125 38.46875 -26.8125 C 39.101562 -26.738281 39.421875 -26.738281 39.421875 -26.8125 C 39.460938 -26.8125 39.445312 -26.867188 39.375 -26.984375 C 39.144531 -27.203125 38.367188 -27.539062 37.046875 -28 C 35.273438 -28.675781 33.691406 -29.28125 32.296875 -29.8125 C 30.410156 -30.488281 29.316406 -30.882812 29.015625 -31 C 28.753906 -31.070312 27.773438 -31.445312 26.078125 -32.125 L 23.640625 -33.09375 L 21.890625 -31.21875 C 21.210938 -30.539062 18.929688 -28.09375 15.046875 -23.875 C 12.367188 -21.007812 10.648438 -19.226562 9.890625 -18.53125 C 9.140625 -17.832031 8.648438 -17.578125 8.421875 -17.765625 C 8.273438 -17.910156 8.144531 -17.984375 8.03125 -17.984375 C 7.84375 -17.910156 7.363281 -17.96875 6.59375 -18.15625 C 5.820312 -18.34375 5.378906 -18.515625 5.265625 -18.671875 C 5.078125 -18.816406 4.941406 -19.171875 4.859375 -19.734375 C 4.785156 -20.117188 4.796875 -20.441406 4.890625 -20.703125 C 4.984375 -20.960938 5.296875 -21.488281 5.828125 -22.28125 C 6.617188 -23.488281 7.164062 -24.472656 7.46875 -25.234375 C 7.84375 -26.023438 8.050781 -26.457031 8.09375 -26.53125 L 8.09375 -25.28125 C 7.976562 -24.375 7.976562 -23.921875 8.09375 -23.921875 C 8.351562 -23.921875 11.382812 -27.1875 17.1875 -33.71875 C 20.207031 -37.1875 21.972656 -39.238281 22.484375 -39.875 C 22.992188 -40.519531 23.25 -41.066406 23.25 -41.515625 Z M 23.25 -41.515625 "/></g></g></g><g fill="#000000" fill-opacity="1"><g transform="translate(153.685978, 93.470458)"><g><path d="M 36.421875 -35.515625 C 37.484375 -35.859375 38.179688 -36.050781 38.515625 -36.09375 C 38.816406 -36.09375 39.363281 -35.84375 40.15625 -35.34375 C 40.945312 -34.851562 41.53125 -34.40625 41.90625 -34 C 42.320312 -33.539062 42.925781 -33.101562 43.71875 -32.6875 C 44.25 -32.382812 44.644531 -32.09375 44.90625 -31.8125 C 45.175781 -31.53125 45.253906 -31.316406 45.140625 -31.171875 C 45.023438 -31.085938 44.289062 -30.859375 42.9375 -30.484375 C 41.382812 -29.992188 39.851562 -29.445312 38.34375 -28.84375 C 36.613281 -28.207031 35.726562 -27.925781 35.6875 -28 C 35.65625 -28.039062 35.710938 -28.097656 35.859375 -28.171875 C 35.972656 -28.242188 36.085938 -28.28125 36.203125 -28.28125 C 36.578125 -28.425781 36.742188 -28.554688 36.703125 -28.671875 C 36.703125 -28.710938 36.617188 -28.703125 36.453125 -28.640625 C 36.285156 -28.585938 36.109375 -28.515625 35.921875 -28.421875 C 35.734375 -28.328125 35.539062 -28.234375 35.34375 -28.140625 C 35.15625 -28.046875 35.003906 -27.957031 34.890625 -27.875 C 34.785156 -27.800781 34.734375 -27.75 34.734375 -27.71875 C 34.804688 -27.644531 34.785156 -27.609375 34.671875 -27.609375 C 34.671875 -27.609375 34.632812 -27.609375 34.5625 -27.609375 C 34.40625 -27.679688 33.929688 -27.488281 33.140625 -27.03125 C 32.347656 -26.539062 31.9375 -26.316406 31.90625 -26.359375 C 31.863281 -26.429688 32.5625 -27.109375 34 -28.390625 C 35.394531 -29.640625 36.109375 -30.335938 36.140625 -30.484375 C 36.179688 -30.523438 36.078125 -30.515625 35.828125 -30.453125 C 35.585938 -30.398438 35.238281 -30.296875 34.78125 -30.140625 C 34.332031 -29.992188 33.828125 -29.84375 33.265625 -29.6875 C 31.972656 -29.238281 29.972656 -28.582031 27.265625 -27.71875 C 25.304688 -27.070312 23.351562 -26.390625 21.40625 -25.671875 C 19.46875 -24.960938 18.5 -24.566406 18.5 -24.484375 C 18.5 -24.378906 18.757812 -24.269531 19.28125 -24.15625 C 19.769531 -24 20.164062 -23.828125 20.46875 -23.640625 C 20.664062 -23.453125 20.769531 -23.320312 20.78125 -23.25 C 20.800781 -23.175781 20.738281 -22.945312 20.59375 -22.5625 C 19.195312 -19.363281 17.765625 -15.671875 16.296875 -11.484375 C 13.347656 -3.265625 11.613281 1.804688 11.09375 3.734375 C 10.820312 4.523438 10.570312 4.921875 10.34375 4.921875 C 10.082031 4.921875 9.929688 4.84375 9.890625 4.6875 C 9.785156 4.539062 9.640625 4.503906 9.453125 4.578125 C 9.253906 4.617188 8.988281 4.5625 8.65625 4.40625 C 8.28125 4.21875 8 4.144531 7.8125 4.1875 C 7.539062 4.257812 7.332031 4.203125 7.1875 4.015625 C 7.03125 3.828125 6.800781 3.734375 6.5 3.734375 C 5.9375 3.734375 5.5625 3.316406 5.375 2.484375 C 5.1875 1.660156 5.222656 0.507812 5.484375 -0.96875 C 5.671875 -2.0625 5.773438 -3.472656 5.796875 -5.203125 C 5.816406 -6.941406 5.75 -8.359375 5.59375 -9.453125 C 5.445312 -10.546875 5.394531 -11.09375 5.4375 -11.09375 C 5.46875 -11.125 5.554688 -10.875 5.703125 -10.34375 C 5.859375 -9.820312 6.050781 -9.144531 6.28125 -8.3125 C 6.507812 -7.476562 6.675781 -6.722656 6.78125 -6.046875 C 6.96875 -5.140625 7.117188 -4.671875 7.234375 -4.640625 C 7.347656 -4.597656 7.390625 -4.957031 7.359375 -5.71875 C 7.316406 -6.46875 7.316406 -6.84375 7.359375 -6.84375 C 7.390625 -6.84375 7.425781 -6.75 7.46875 -6.5625 C 7.695312 -6.070312 7.8125 -5.695312 7.8125 -5.4375 C 7.8125 -5.09375 8.5625 -7.085938 10.0625 -11.421875 C 11.382812 -15.304688 12.519531 -18.421875 13.46875 -20.765625 C 14.21875 -22.722656 14.613281 -23.773438 14.65625 -23.921875 C 14.726562 -24.078125 14.6875 -24.207031 14.53125 -24.3125 C 14.382812 -24.425781 14.101562 -24.582031 13.6875 -24.78125 C 12.96875 -25.113281 12.347656 -25.675781 11.828125 -26.46875 C 10.765625 -28.019531 10.289062 -28.867188 10.40625 -29.015625 C 10.476562 -29.085938 10.707031 -29.050781 11.09375 -28.90625 C 11.46875 -28.75 11.957031 -28.710938 12.5625 -28.796875 C 13.5 -28.898438 17.664062 -30.046875 25.0625 -32.234375 C 28.113281 -33.179688 31.898438 -34.273438 36.421875 -35.515625 Z M 24.890625 -41.296875 C 24.890625 -41.515625 25.054688 -41.566406 25.390625 -41.453125 C 26.710938 -40.929688 27.734375 -40.289062 28.453125 -39.53125 C 28.941406 -39.039062 29.410156 -38.738281 29.859375 -38.625 C 30.347656 -38.519531 30.800781 -38.320312 31.21875 -38.03125 C 31.632812 -37.75 31.84375 -37.515625 31.84375 -37.328125 C 31.84375 -37.066406 31.753906 -36.847656 31.578125 -36.671875 C 31.410156 -36.503906 31.046875 -36.3125 30.484375 -36.09375 C 28.523438 -35.300781 26.90625 -34.46875 25.625 -33.59375 C 25.09375 -33.257812 24.863281 -33.148438 24.9375 -33.265625 C 24.976562 -33.410156 25.171875 -33.671875 25.515625 -34.046875 C 25.847656 -34.390625 25.976562 -34.5625 25.90625 -34.5625 C 25.789062 -34.519531 25.242188 -34.085938 24.265625 -33.265625 C 23.816406 -32.847656 23.476562 -32.546875 23.25 -32.359375 C 23.019531 -32.171875 22.90625 -32.09375 22.90625 -32.125 C 22.90625 -32.164062 23.207031 -32.804688 23.8125 -34.046875 C 24.34375 -35.296875 24.796875 -36.484375 25.171875 -37.609375 L 25.734375 -39.25 L 25.28125 -40.109375 C 25.019531 -40.671875 24.890625 -41.066406 24.890625 -41.296875 Z M 24.890625 -41.296875 "/></g></g></g><g fill="#000000" fill-opacity="1"><g transform="translate(201.757238, 93.470458)"><g><path d="M 10.0625 -33.65625 C 10.144531 -38.707031 10.28125 -41.234375 10.46875 -41.234375 C 10.613281 -41.234375 11.066406 -41.007812 11.828125 -40.5625 C 12.421875 -40.175781 13.078125 -39.78125 13.796875 -39.375 C 14.398438 -38.988281 14.910156 -38.628906 15.328125 -38.296875 L 16 -37.734375 L 15.609375 -32.96875 C 15.378906 -29.84375 15.304688 -28.257812 15.390625 -28.21875 C 15.421875 -28.113281 15.585938 -28.132812 15.890625 -28.28125 C 16.078125 -28.425781 16.273438 -28.453125 16.484375 -28.359375 C 16.691406 -28.265625 17.175781 -27.957031 17.9375 -27.4375 C 18.988281 -26.644531 19.515625 -26.171875 19.515625 -26.015625 C 19.515625 -25.867188 18.738281 -25.25 17.1875 -24.15625 C 15.644531 -23.0625 14.835938 -22.421875 14.765625 -22.234375 C 14.691406 -22.117188 14.53125 -20.925781 14.28125 -18.65625 C 14.039062 -16.394531 13.957031 -15.226562 14.03125 -15.15625 C 14.101562 -15.15625 14.363281 -15.363281 14.8125 -15.78125 C 15.300781 -16.195312 15.679688 -16.367188 15.953125 -16.296875 C 16.328125 -16.179688 16.75 -15.953125 17.21875 -15.609375 C 17.695312 -15.273438 18.03125 -14.972656 18.21875 -14.703125 C 18.4375 -14.367188 18.71875 -14.21875 19.0625 -14.25 C 19.40625 -14.320312 19.613281 -14.21875 19.6875 -13.9375 C 19.757812 -13.65625 19.757812 -13.101562 19.6875 -12.28125 C 19.613281 -11.21875 19.578125 -10.671875 19.578125 -10.640625 C 19.609375 -10.597656 19.890625 -10.972656 20.421875 -11.765625 C 20.867188 -12.398438 21.488281 -13.363281 22.28125 -14.65625 C 22.320312 -14.726562 22.398438 -14.859375 22.515625 -15.046875 C 22.847656 -15.609375 23.070312 -15.992188 23.1875 -16.203125 C 23.300781 -16.410156 23.414062 -16.625 23.53125 -16.84375 C 23.644531 -17.070312 23.632812 -17.253906 23.5 -17.390625 C 23.363281 -17.523438 23.226562 -17.628906 23.09375 -17.703125 C 22.96875 -17.773438 22.71875 -17.90625 22.34375 -18.09375 C 22.1875 -18.175781 22.09375 -18.234375 22.0625 -18.265625 C 21.488281 -18.535156 21.070312 -18.820312 20.8125 -19.125 C 20.550781 -19.425781 20.34375 -19.894531 20.1875 -20.53125 C 20.15625 -20.789062 20.1875 -21.003906 20.28125 -21.171875 C 20.375 -21.347656 20.628906 -21.679688 21.046875 -22.171875 C 21.722656 -22.921875 22.570312 -23.898438 23.59375 -25.109375 C 24.6875 -26.429688 25.773438 -27.710938 26.859375 -28.953125 C 28.554688 -30.835938 29.332031 -31.859375 29.1875 -32.015625 C 29.144531 -32.054688 28.597656 -31.734375 27.546875 -31.046875 C 26.492188 -30.367188 25.816406 -29.898438 25.515625 -29.640625 C 25.328125 -29.453125 25.15625 -29.363281 25 -29.375 C 24.851562 -29.394531 24.421875 -29.539062 23.703125 -29.8125 C 22.566406 -30.1875 21.753906 -30.523438 21.265625 -30.828125 C 20.773438 -31.128906 20.378906 -31.523438 20.078125 -32.015625 C 19.703125 -32.648438 19.523438 -33.070312 19.546875 -33.28125 C 19.566406 -33.488281 19.800781 -33.59375 20.25 -33.59375 C 20.78125 -33.632812 22.515625 -34.332031 25.453125 -35.6875 C 28.578125 -37.15625 30.765625 -38.132812 32.015625 -38.625 C 33.035156 -39.007812 33.640625 -39.253906 33.828125 -39.359375 C 34.015625 -39.472656 34.085938 -39.664062 34.046875 -39.9375 C 34.015625 -40.269531 34.050781 -40.4375 34.15625 -40.4375 C 34.269531 -40.4375 34.617188 -40.21875 35.203125 -39.78125 C 35.796875 -39.351562 36.28125 -38.96875 36.65625 -38.625 C 37.332031 -37.988281 37.9375 -37.441406 38.46875 -36.984375 C 39.21875 -36.347656 39.59375 -35.9375 39.59375 -35.75 C 39.59375 -35.59375 39.007812 -34.914062 37.84375 -33.71875 C 37.082031 -32.957031 36.03125 -31.84375 34.6875 -30.375 C 33.351562 -28.90625 32.1875 -27.578125 31.1875 -26.390625 C 30.1875 -25.203125 29.726562 -24.609375 29.8125 -24.609375 C 29.957031 -24.523438 32.914062 -25.523438 38.6875 -27.609375 C 40.757812 -28.398438 41.832031 -28.90625 41.90625 -29.125 C 42.0625 -29.65625 43.003906 -29.316406 44.734375 -28.109375 C 44.960938 -27.960938 45.226562 -27.753906 45.53125 -27.484375 C 46.8125 -26.660156 47.601562 -26.101562 47.90625 -25.8125 C 48.207031 -25.53125 48.453125 -25.257812 48.640625 -25 C 48.710938 -24.738281 48.664062 -24.257812 48.5 -23.5625 C 48.332031 -22.863281 47.71875 -20.96875 46.65625 -17.875 C 44.507812 -11.3125 42.515625 -4.921875 40.671875 1.296875 C 40.066406 3.296875 39.648438 4.296875 39.421875 4.296875 C 39.304688 4.296875 39.15625 4.203125 38.96875 4.015625 C 38.820312 3.828125 38.632812 3.769531 38.40625 3.84375 C 38.144531 3.914062 37.898438 3.878906 37.671875 3.734375 C 37.484375 3.546875 37.253906 3.507812 36.984375 3.625 C 36.722656 3.695312 36.523438 3.59375 36.390625 3.3125 C 36.265625 3.03125 36.03125 2.925781 35.6875 3 C 35.382812 3.070312 35.101562 2.921875 34.84375 2.546875 C 34.613281 2.242188 34.382812 1.722656 34.15625 0.984375 C 33.9375 0.253906 33.863281 -0.1875 33.9375 -0.34375 C 34.007812 -0.457031 34.101562 -1.851562 34.21875 -4.53125 L 34.328125 -8.546875 L 34.734375 -6.28125 C 34.765625 -5.863281 34.804688 -5.519531 34.859375 -5.25 C 34.921875 -4.988281 34.988281 -4.773438 35.0625 -4.609375 C 35.144531 -4.441406 35.191406 -4.316406 35.203125 -4.234375 C 35.222656 -4.160156 35.269531 -4.144531 35.34375 -4.1875 C 35.726562 -4.332031 36.222656 -5.390625 36.828125 -7.359375 C 37.460938 -9.273438 38.445312 -12.5625 39.78125 -17.21875 C 41.125 -21.875 41.78125 -24.203125 41.75 -24.203125 C 41.707031 -24.242188 40.59375 -23.867188 38.40625 -23.078125 L 35.0625 -21.890625 L 35.578125 -21.375 C 35.835938 -21.039062 35.96875 -20.816406 35.96875 -20.703125 C 35.96875 -20.585938 36.40625 -20.34375 37.28125 -19.96875 C 38.144531 -19.507812 38.578125 -19.242188 38.578125 -19.171875 C 38.578125 -19.054688 38.03125 -18.039062 36.9375 -16.125 C 35.769531 -14.15625 34.5625 -11.984375 33.3125 -9.609375 C 33.195312 -9.390625 32.046875 -7.242188 29.859375 -3.171875 C 28.085938 0.179688 27.164062 1.9375 27.09375 2.09375 C 26.226562 3.71875 25.703125 4.566406 25.515625 4.640625 C 25.328125 4.753906 25.132812 4.675781 24.9375 4.40625 C 24.789062 4.1875 24.613281 4.148438 24.40625 4.296875 C 24.195312 4.453125 24.019531 4.414062 23.875 4.1875 C 23.71875 3.957031 23.546875 3.898438 23.359375 4.015625 C 23.171875 4.054688 22.851562 3.984375 22.40625 3.796875 C 21.71875 3.566406 21.269531 3.140625 21.0625 2.515625 C 20.863281 1.890625 20.910156 1.203125 21.203125 0.453125 C 21.398438 -0.078125 21.65625 -1.101562 21.96875 -2.625 C 22.289062 -4.15625 22.566406 -5.164062 22.796875 -5.65625 L 23.015625 -6.328125 L 23.078125 -4.921875 C 23.078125 -3.972656 23.132812 -3.425781 23.25 -3.28125 C 23.4375 -3.019531 23.71875 -3.207031 24.09375 -3.84375 C 24.351562 -4.332031 25.03125 -5.632812 26.125 -7.75 C 27.445312 -10.269531 28.539062 -12.34375 29.40625 -13.96875 C 31.675781 -18.113281 32.8125 -20.335938 32.8125 -20.640625 C 32.8125 -20.722656 32.753906 -20.765625 32.640625 -20.765625 C 32.523438 -20.765625 32.375 -20.734375 32.1875 -20.671875 C 32 -20.617188 31.8125 -20.550781 31.625 -20.46875 C 31.238281 -20.25 30.914062 -19.851562 30.65625 -19.28125 C 30.394531 -18.71875 29.976562 -17.925781 29.40625 -16.90625 C 28.394531 -15.207031 26.691406 -12.507812 24.296875 -8.8125 C 21.898438 -5.125 20.625 -3.28125 20.46875 -3.28125 C 20.4375 -3.28125 20.34375 -3.316406 20.1875 -3.390625 C 20.039062 -3.546875 19.4375 -3.773438 18.375 -4.078125 L 16.75 -4.46875 L 16.515625 -5.484375 C 16.367188 -6.160156 16.40625 -6.671875 16.625 -7.015625 C 18.738281 -11.046875 19.664062 -13.0625 19.40625 -13.0625 C 19.289062 -13.0625 19.046875 -12.835938 18.671875 -12.390625 C 14.066406 -7.453125 11.125 -4.113281 9.84375 -2.375 L 9.453125 -1.859375 L 8.140625 -2.15625 C 4.410156 -3.09375 2.46875 -4.144531 2.3125 -5.3125 C 2.3125 -5.613281 2.335938 -5.789062 2.390625 -5.84375 C 2.453125 -5.90625 2.710938 -5.914062 3.171875 -5.875 C 3.691406 -5.84375 4.234375 -6.003906 4.796875 -6.359375 C 5.367188 -6.722656 6.222656 -7.46875 7.359375 -8.59375 L 8.875 -10.125 L 9.046875 -12.71875 C 9.085938 -13.738281 9.164062 -15.15625 9.28125 -16.96875 C 9.351562 -17.945312 9.351562 -18.457031 9.28125 -18.5 C 9.238281 -18.5 9.195312 -18.476562 9.15625 -18.4375 C 8.9375 -18.25 8.25 -18.320312 7.09375 -18.65625 C 5.945312 -19 5.128906 -19.34375 4.640625 -19.6875 C 3.359375 -20.695312 2.566406 -21.546875 2.265625 -22.234375 C 2.191406 -22.453125 2.207031 -22.5625 2.3125 -22.5625 C 2.351562 -22.5625 2.675781 -22.488281 3.28125 -22.34375 C 3.726562 -22.226562 4.113281 -22.21875 4.4375 -22.3125 C 4.757812 -22.40625 5.597656 -22.773438 6.953125 -23.421875 C 8.234375 -24.054688 9.015625 -24.476562 9.296875 -24.6875 C 9.585938 -24.894531 9.769531 -25.148438 9.84375 -25.453125 C 9.875 -25.753906 9.945312 -28.488281 10.0625 -33.65625 Z M 10.0625 -33.65625 "/></g></g></g><path fill="#494edf" d="M 366.574219 410.050781 C 369.257812 416.113281 372.273438 420.761719 374.992188 427.269531 C 370.746094 432.066406 361.808594 442.253906 357.601562 447.164062 C 357.230469 447.164062 353.503906 439.355469 353.320312 439.242188 C 352.945312 437.71875 351.679688 434.445312 350.191406 431.023438 C 348.21875 426.414062 345.945312 421.394531 345.125 419.71875 C 347.734375 418.269531 351.53125 415.703125 355.441406 413.957031 C 359.5 412.132812 363.632812 411.167969 366.574219 410.050781 Z M 366.574219 410.050781 " fill-opacity="1" fill-rule="nonzero"/><path fill="#ddede7" d="M 372.792969 395.734375 C 375.328125 401.3125 375.027344 406.519531 366.574219 410.089844 C 360.878906 412.246094 350.453125 416.78125 345.125 419.757812 C 325.835938 376.320312 313.398438 350.515625 295.898438 313.625 C 293.476562 308.230469 291.207031 301.648438 294.40625 296.628906 C 301.296875 285.808594 316.898438 300.3125 327.402344 314.105469 C 346.058594 337.238281 359.871094 369.925781 372.792969 395.734375 Z M 372.792969 395.734375 " fill-opacity="1" fill-rule="nonzero"/><path fill="#f6cec1" d="M 374.953125 427.304688 C 395.695312 408.339844 407.089844 429.277344 395.25 446.828125 C 401.503906 445.453125 407.648438 447.984375 411.074219 452.59375 C 416.625 460.070312 411.671875 466.726562 409.921875 472.191406 C 416.960938 469.515625 426.53125 476.730469 425.039062 485.914062 C 413.457031 519.53125 406.234375 522.023438 407.539062 561.183594 C 407.539062 561.183594 319.730469 560.734375 319.730469 560.734375 C 317.867188 519.976562 316.566406 490.375 326.171875 459.398438 C 328.742188 451.179688 342.484375 431.359375 350.117188 431.0625 C 352.871094 437.125 355.960938 443.667969 357.5625 447.015625 C 363.148438 439.875 369.183594 431.992188 374.953125 427.304688 Z M 374.953125 427.304688 " fill-opacity="1" fill-rule="nonzero"/><g clip-path="url(#7c5c477b83)"><path fill="#f6cec1" d="M 187.085938 446.792969 C 188.464844 444.488281 190.476562 438.3125 193.34375 430.578125 C 200.976562 430.652344 216.207031 450.511719 218.964844 458.617188 C 229.390625 489.335938 228.867188 518.9375 228.125 559.769531 C 228.125 559.769531 140.390625 562.558594 140.390625 562.558594 C 139.832031 552.816406 139.71875 534.777344 136.40625 524.328125 C 134.132812 517.1875 122.328125 495.621094 120.839844 487.773438 C 119.128906 478.664062 128.472656 471.1875 135.585938 473.679688 C 133.722656 468.25 128.585938 461.703125 133.949219 454.117188 C 137.261719 449.433594 143.292969 446.71875 149.625 447.945312 C 144.410156 439.839844 139.234375 423.253906 153.832031 420.796875 C 159.082031 420.835938 164.335938 423.550781 169.25 427.457031 C 175.953125 432.734375 182.132812 440.394531 187.085938 446.792969 Z M 187.085938 446.792969 " fill-opacity="1" fill-rule="nonzero"/></g><path fill="#ddede7" d="M 249.535156 329.726562 C 249.535156 329.726562 255.566406 331.621094 257.355469 332.886719 C 250.542969 350.625 244.804688 373.050781 236.429688 390.042969 C 229.875 400.121094 215.128906 403.878906 204.328125 399.75 C 202.207031 404.324219 190.996094 438.835938 187.085938 447.203125 C 181.425781 439.355469 175.132812 432.214844 169.210938 427.417969 C 177.738281 411.726562 186.566406 398.558594 189.0625 392.386719 C 159.269531 370.632812 192.820312 334.484375 203.957031 311.394531 C 207.566406 313.066406 212.261719 314.925781 212.261719 314.925781 C 212.261719 314.925781 195.949219 357.394531 195.429688 358.882812 C 193.976562 363.046875 193.976562 366.320312 197.289062 367.695312 C 199.972656 368.808594 202.28125 368.140625 204.664062 364.347656 C 210.472656 352.074219 220.527344 332.960938 227.640625 321.359375 C 229.539062 322.066406 231.808594 323.144531 233.746094 323.851562 C 230.507812 333.222656 218.40625 367.992188 218.21875 368.476562 C 217.511719 370.296875 216.246094 374.945312 220.117188 376.621094 C 224.398438 378.480469 226.335938 374.015625 227.15625 372.753906 C 228.011719 371.375 249.535156 329.726562 249.535156 329.726562 Z M 249.535156 329.726562 " fill-opacity="1" fill-rule="nonzero"/><path fill="#1a1d3f" d="M 350.117188 466.203125 C 355.554688 454.417969 362.257812 444.488281 370.410156 435.597656 C 372.496094 433.367188 374.65625 431.25 376.929688 429.238281 C 379.496094 426.75 375.550781 422.769531 372.980469 425.296875 C 363.820312 433.367188 356.410156 443.261719 350.226562 453.710938 C 348.550781 457.355469 345.089844 461.519531 344.976562 465.496094 C 345.5 467.804688 349.035156 468.363281 350.117188 466.203125 Z M 350.117188 466.203125 " fill-opacity="1" fill-rule="nonzero"/><path fill="#1a1d3f" d="M 200.046875 463.191406 C 194.386719 451.628906 186.789062 441.027344 177.816406 431.804688 C 175.246094 429.910156 170.367188 422.546875 167.089844 425.632812 C 166.160156 426.636719 165.859375 428.609375 167.089844 429.574219 C 172.675781 434.113281 177.589844 439.464844 182.058594 445.121094 C 186.117188 450.214844 191.777344 458.804688 195.203125 466.019531 C 196.957031 469.140625 201.832031 466.351562 200.046875 463.191406 Z M 200.046875 463.191406 " fill-opacity="1" fill-rule="nonzero"/><path fill="#1a1d3f" d="M 296.15625 299.195312 C 296.308594 299.007812 296.308594 298.898438 296.269531 298.933594 C 296.234375 299.007812 296.195312 299.121094 296.15625 299.195312 Z M 296.15625 299.195312 " fill-opacity="1" fill-rule="nonzero"/><path fill="#1a1d3f" d="M 295.636719 301.167969 C 295.710938 300.867188 295.710938 300.832031 295.675781 300.90625 C 295.675781 300.980469 295.636719 301.089844 295.636719 301.167969 Z M 295.636719 301.167969 " fill-opacity="1" fill-rule="nonzero"/><path fill="#1a1d3f" d="M 198.707031 365.277344 C 194.238281 364.496094 202.765625 349.101562 203.582031 345.308594 C 206.675781 337.273438 209.765625 329.242188 212.855469 321.171875 C 213.636719 318.382812 217.210938 313.808594 213.042969 312.210938 C 209.765625 311.28125 206.675781 308.679688 203.285156 308.679688 C 201.015625 309.199219 200.457031 312.730469 202.617188 313.773438 C 204.625 314.703125 206.675781 315.59375 208.722656 316.414062 C 206.75 321.507812 204.8125 326.566406 202.875 331.660156 C 199.785156 339.730469 196.65625 347.761719 193.605469 355.832031 C 192.078125 359.847656 190.363281 364.757812 193.605469 368.402344 C 197.328125 372.9375 202.765625 368.660156 198.707031 365.277344 Z M 198.707031 365.277344 " fill-opacity="1" fill-rule="nonzero"/><path fill="#1a1d3f" d="M 216.617188 377.550781 C 220.339844 381.898438 225.441406 377.363281 221.53125 374.203125 C 220.304688 373.867188 220.117188 372.640625 220.265625 371.523438 C 225.292969 355.792969 231.175781 340.289062 236.429688 324.59375 C 237.171875 322.066406 234.453125 321.0625 232.554688 320.390625 C 230.171875 319.386719 226.1875 316.933594 224.957031 320.613281 C 224.140625 323.851562 228.125 324.332031 230.246094 325.414062 C 229.390625 327.867188 228.535156 330.359375 227.675781 332.8125 C 224.625 341.550781 221.605469 350.289062 218.554688 358.992188 C 217.027344 364.90625 211.886719 372.007812 216.617188 377.550781 Z M 216.617188 377.550781 " fill-opacity="1" fill-rule="nonzero"/><path fill="#1a1d3f" d="M 258.769531 330.46875 C 256.125 328.90625 253.148438 328.015625 250.28125 327.046875 C 246.816406 326.082031 245.328125 331.4375 248.789062 332.441406 C 250.542969 333 252.253906 333.59375 253.929688 334.261719 C 251.882812 340.214844 249.832031 346.125 247.75 352.039062 C 245.363281 358.917969 242.945312 365.796875 240.5625 372.640625 C 238.402344 378.589844 236.835938 385.023438 232.890625 390.15625 C 227.527344 396.625 218.554688 399.378906 210.359375 398.410156 C 207.867188 398.449219 205.332031 396.21875 202.949219 397.332031 C 201.648438 398.039062 201.164062 399.898438 201.945312 401.164062 C 212.632812 407.894531 229.128906 403.285156 237.0625 393.875 C 241.53125 388.332031 243.429688 381.34375 245.773438 374.761719 C 250.28125 361.746094 254.859375 348.765625 259.328125 335.789062 C 260.074219 333.964844 260.78125 331.660156 258.769531 330.46875 Z M 258.769531 330.46875 " fill-opacity="1" fill-rule="nonzero"/><path fill="#1a1d3f" d="M 376.703125 398.785156 C 373.09375 387.8125 366.648438 377.773438 361.921875 367.210938 C 360.46875 364.273438 359.015625 361.371094 357.601562 358.472656 C 357.078125 356.835938 354.957031 355.945312 353.503906 356.875 C 352.164062 357.726562 351.792969 359.289062 352.5 360.703125 C 354.808594 365.351562 357.117188 370.039062 359.425781 374.6875 C 362.292969 380.523438 365.199219 386.363281 368.027344 392.203125 C 371.601562 398.820312 374.097656 404.363281 365.160156 407.632812 C 363.039062 408.710938 363.523438 412.207031 365.832031 412.730469 C 372.347656 412.394531 378.378906 405.402344 376.703125 398.785156 Z M 376.703125 398.785156 " fill-opacity="1" fill-rule="nonzero"/><g fill="#000000" fill-opacity="1"><g transform="translate(148.319487, 184.801805)"><g><path d="M 22.8125 -31.828125 C 22.925781 -31.941406 23.195312 -31.90625 23.625 -31.71875 C 24.0625 -31.53125 24.488281 -31.285156 24.90625 -30.984375 C 25.46875 -30.640625 25.976562 -30.332031 26.4375 -30.0625 C 26.8125 -29.957031 27.054688 -29.847656 27.171875 -29.734375 C 27.285156 -29.617188 27.296875 -29.460938 27.203125 -29.265625 C 27.109375 -29.078125 26.910156 -28.878906 26.609375 -28.671875 C 26.304688 -28.460938 25.832031 -28.191406 25.1875 -27.859375 C 23.863281 -27.066406 23.164062 -26.628906 23.09375 -26.546875 L 22.40625 -26.09375 L 22.921875 -26.671875 C 23.179688 -26.972656 23.296875 -27.140625 23.265625 -27.171875 C 23.179688 -27.210938 22.878906 -27.003906 22.359375 -26.546875 C 21.753906 -25.984375 21.242188 -25.566406 20.828125 -25.296875 L 20.03125 -24.671875 L 20.421875 -25.296875 C 22.203125 -28.054688 23 -29.953125 22.8125 -30.984375 C 22.726562 -31.472656 22.726562 -31.753906 22.8125 -31.828125 Z M 25.875 -17.140625 C 25.988281 -17.585938 25.96875 -17.8125 25.8125 -17.8125 C 25.695312 -17.8125 24.921875 -17.421875 23.484375 -16.640625 C 22.046875 -15.867188 21.210938 -15.390625 20.984375 -15.203125 C 20.796875 -15.054688 20.492188 -14.925781 20.078125 -14.8125 C 19.816406 -14.8125 19.628906 -14.742188 19.515625 -14.609375 C 19.398438 -14.472656 19.34375 -14.273438 19.34375 -14.015625 C 19.226562 -13.554688 19.191406 -13.289062 19.234375 -13.21875 C 19.304688 -13.175781 20.210938 -13.570312 21.953125 -14.40625 C 23.691406 -15.238281 24.753906 -15.789062 25.140625 -16.0625 C 25.441406 -16.320312 25.6875 -16.679688 25.875 -17.140625 Z M 28.59375 -23.4375 C 28.96875 -24.113281 29.117188 -24.507812 29.046875 -24.625 C 29.003906 -24.695312 28.195312 -24.316406 26.625 -23.484375 C 25.0625 -22.648438 23.484375 -21.789062 21.890625 -20.90625 C 20.304688 -20.019531 19.515625 -19.519531 19.515625 -19.40625 C 19.515625 -19.363281 19.59375 -19.269531 19.75 -19.125 C 19.820312 -18.96875 19.894531 -18.757812 19.96875 -18.5 C 20.007812 -18.226562 20.238281 -18.226562 20.65625 -18.5 C 20.914062 -18.613281 21.441406 -18.894531 22.234375 -19.34375 C 23.828125 -20.289062 25.171875 -21.03125 26.265625 -21.5625 C 27.140625 -21.976562 27.6875 -22.28125 27.90625 -22.46875 C 28.132812 -22.65625 28.363281 -22.976562 28.59375 -23.4375 Z M 41.015625 -25.078125 C 41.054688 -25.117188 41.039062 -25.140625 40.96875 -25.140625 C 40.882812 -25.171875 40.828125 -25.1875 40.796875 -25.1875 C 40.679688 -25.113281 40.625 -25.078125 40.625 -25.078125 C 40.769531 -25.003906 40.898438 -25.003906 41.015625 -25.078125 Z M 40.21875 -25.296875 C 40.257812 -25.335938 40.242188 -25.359375 40.171875 -25.359375 C 40.085938 -25.398438 40.007812 -25.421875 39.9375 -25.421875 C 39.863281 -25.335938 39.828125 -25.28125 39.828125 -25.25 C 39.972656 -25.175781 40.101562 -25.191406 40.21875 -25.296875 Z M 23.3125 -41.640625 C 23.3125 -42.242188 23.351562 -42.546875 23.4375 -42.546875 C 23.539062 -42.546875 23.847656 -42.375 24.359375 -42.03125 C 24.878906 -41.695312 25.328125 -41.378906 25.703125 -41.078125 C 26.148438 -40.660156 26.773438 -40.1875 27.578125 -39.65625 C 28.328125 -39.195312 28.703125 -38.890625 28.703125 -38.734375 C 28.703125 -38.585938 28.363281 -38.210938 27.6875 -37.609375 C 27.039062 -37.046875 26.738281 -36.707031 26.78125 -36.59375 C 26.894531 -36.4375 27.707031 -36.132812 29.21875 -35.6875 C 33.414062 -34.363281 37.117188 -33.078125 40.328125 -31.828125 C 43.546875 -30.578125 45.269531 -29.726562 45.5 -29.28125 C 45.65625 -29.007812 45.734375 -27.785156 45.734375 -25.609375 C 45.734375 -23.441406 45.675781 -22.316406 45.5625 -22.234375 C 45.375 -22.234375 44.445312 -22.632812 42.78125 -23.4375 C 41 -24.300781 39.816406 -24.851562 39.234375 -25.09375 C 38.648438 -25.34375 38.347656 -25.492188 38.328125 -25.546875 C 38.304688 -25.609375 38.503906 -25.601562 38.921875 -25.53125 L 39.375 -25.46875 C 39.332031 -25.507812 39.238281 -25.550781 39.09375 -25.59375 C 38.707031 -25.738281 38.421875 -25.773438 38.234375 -25.703125 C 38.046875 -25.703125 37.953125 -25.738281 37.953125 -25.8125 C 38.023438 -25.882812 37.953125 -25.976562 37.734375 -26.09375 C 37.460938 -26.207031 36.894531 -26.34375 36.03125 -26.5 C 34.894531 -26.757812 34.328125 -26.832031 34.328125 -26.71875 C 34.328125 -26.71875 34.363281 -26.660156 34.4375 -26.546875 C 34.664062 -26.328125 34.703125 -26 34.546875 -25.5625 C 34.398438 -25.125 33.945312 -24.1875 33.1875 -22.75 C 32.207031 -20.78125 31.414062 -19.097656 30.8125 -17.703125 C 30.3125 -16.609375 30.035156 -15.9375 29.984375 -15.6875 C 29.929688 -15.4375 29.976562 -15.238281 30.125 -15.09375 C 30.382812 -14.789062 30.488281 -14.570312 30.4375 -14.4375 C 30.382812 -14.300781 30.148438 -14.160156 29.734375 -14.015625 C 29.316406 -13.898438 28.519531 -13.578125 27.34375 -13.046875 C 26.175781 -12.484375 25.644531 -12.257812 25.75 -12.375 C 25.789062 -12.445312 26.113281 -12.632812 26.71875 -12.9375 C 26.90625 -13.050781 27.070312 -13.144531 27.21875 -13.21875 C 27.375 -13.289062 27.476562 -13.363281 27.53125 -13.4375 C 27.59375 -13.519531 27.625 -13.5625 27.625 -13.5625 C 27.59375 -13.59375 26.863281 -13.257812 25.4375 -12.5625 C 24.019531 -11.863281 23.3125 -11.476562 23.3125 -11.40625 C 23.3125 -11.332031 23.878906 -11.046875 25.015625 -10.546875 L 26.78125 -9.875 L 28.3125 -11.171875 C 29.375 -12.191406 30.453125 -13.117188 31.546875 -13.953125 C 32.453125 -14.742188 33.035156 -15.289062 33.296875 -15.59375 C 33.566406 -15.90625 33.703125 -16.25 33.703125 -16.625 C 33.703125 -16.8125 33.75 -16.90625 33.84375 -16.90625 C 33.9375 -16.90625 34.210938 -16.773438 34.671875 -16.515625 C 35.421875 -16.097656 35.890625 -15.753906 36.078125 -15.484375 C 36.304688 -15.179688 36.515625 -15.03125 36.703125 -15.03125 C 36.929688 -15.03125 37.382812 -14.71875 38.0625 -14.09375 C 38.75 -13.46875 39.09375 -13.082031 39.09375 -12.9375 C 39.09375 -12.820312 38.957031 -12.6875 38.6875 -12.53125 C 38.6875 -12.457031 38.515625 -12.328125 38.171875 -12.140625 C 37.835938 -11.953125 37.375 -11.664062 36.78125 -11.28125 C 36.195312 -10.90625 35.660156 -10.566406 35.171875 -10.265625 C 33.097656 -8.898438 31.925781 -8.085938 31.65625 -7.828125 C 31.425781 -7.640625 31.445312 -7.488281 31.71875 -7.375 C 31.832031 -7.300781 32.097656 -7.171875 32.515625 -6.984375 C 36.742188 -5.273438 40.164062 -3.757812 42.78125 -2.4375 L 45.734375 -0.96875 L 45.734375 0.34375 C 45.734375 1.207031 45.585938 1.875 45.296875 2.34375 C 45.015625 2.820312 44.894531 3.476562 44.9375 4.3125 C 45.007812 5.21875 44.96875 5.753906 44.8125 5.921875 C 44.664062 6.097656 44.269531 6.070312 43.625 5.84375 C 42.71875 5.539062 40.476562 4.519531 36.90625 2.78125 C 33.332031 1.039062 31.582031 0.113281 31.65625 0 C 31.695312 0 31.695312 0 31.65625 0 C 31.613281 0 31.578125 0 31.546875 0 C 31.390625 0.0703125 31.085938 -0.0390625 30.640625 -0.34375 C 30.148438 -0.644531 29.503906 -0.945312 28.703125 -1.25 C 28.023438 -1.507812 27.648438 -1.679688 27.578125 -1.765625 L 28.25 -1.703125 C 28.320312 -1.660156 28.398438 -1.640625 28.484375 -1.640625 C 29.203125 -1.492188 30.316406 -1.296875 31.828125 -1.046875 C 33.335938 -0.804688 34.226562 -0.6875 34.5 -0.6875 C 34.988281 -0.6875 34.96875 -0.851562 34.4375 -1.1875 C 34.207031 -1.300781 33.90625 -1.4375 33.53125 -1.59375 C 32.65625 -1.894531 30.550781 -2.90625 27.21875 -4.625 C 23.894531 -6.34375 21.347656 -7.734375 19.578125 -8.796875 C 19.117188 -9.054688 18.796875 -9.164062 18.609375 -9.125 C 18.421875 -9.09375 18.328125 -8.925781 18.328125 -8.625 C 18.328125 -8.28125 18.15625 -7.257812 17.8125 -5.5625 C 17.507812 -3.820312 17.359375 -2.953125 17.359375 -2.953125 C 17.398438 -2.910156 18.070312 -3.273438 19.375 -4.046875 C 20.675781 -4.828125 21.519531 -5.367188 21.90625 -5.671875 C 22.957031 -6.390625 22.84375 -6.007812 21.5625 -4.53125 C 20.570312 -3.320312 20.117188 -2.738281 20.203125 -2.78125 C 20.203125 -2.78125 20.503906 -3.046875 21.109375 -3.578125 C 21.828125 -4.210938 22.203125 -4.515625 22.234375 -4.484375 C 22.234375 -4.410156 22.066406 -4.164062 21.734375 -3.75 C 21.460938 -3.445312 20.957031 -2.671875 20.21875 -1.421875 C 19.488281 -0.171875 18.859375 1 18.328125 2.09375 C 17.640625 3.457031 17.1875 4.175781 16.96875 4.25 C 16.78125 4.332031 15.910156 4.257812 14.359375 4.03125 C 12.804688 3.800781 11.953125 3.609375 11.796875 3.453125 C 11.609375 3.304688 11.378906 2.96875 11.109375 2.4375 C 10.847656 1.90625 10.757812 1.601562 10.84375 1.53125 C 10.914062 1.414062 11.140625 1.320312 11.515625 1.25 C 11.929688 1.175781 12.175781 0.988281 12.25 0.6875 C 12.332031 0.300781 12.523438 -0.816406 12.828125 -2.671875 C 13.503906 -6.222656 13.972656 -8.679688 14.234375 -10.046875 C 15.453125 -16.128906 15.984375 -19.226562 15.828125 -19.34375 C 15.785156 -19.414062 15.597656 -19.550781 15.265625 -19.75 C 14.960938 -19.851562 14.71875 -20.226562 14.53125 -20.875 C 14.300781 -21.59375 14.300781 -21.953125 14.53125 -21.953125 C 14.601562 -21.953125 14.695312 -21.914062 14.8125 -21.84375 C 15.070312 -21.726562 15.617188 -21.859375 16.453125 -22.234375 C 17.285156 -22.617188 19.894531 -23.867188 24.28125 -25.984375 L 30.75 -29.21875 L 31.375 -28.828125 C 31.832031 -28.515625 32.191406 -28.207031 32.453125 -27.90625 C 32.796875 -27.457031 33.15625 -27.195312 33.53125 -27.125 C 33.601562 -27.082031 33.640625 -27.082031 33.640625 -27.125 C 33.640625 -27.15625 33.625 -27.171875 33.59375 -27.171875 C 33.507812 -27.285156 33.488281 -27.351562 33.53125 -27.375 C 33.570312 -27.394531 33.644531 -27.382812 33.75 -27.34375 C 33.976562 -27.269531 34.625 -27.195312 35.6875 -27.125 C 35.988281 -27.125 36.488281 -27.082031 37.1875 -27 C 37.882812 -26.925781 38.347656 -26.890625 38.578125 -26.890625 C 39.222656 -26.816406 39.546875 -26.816406 39.546875 -26.890625 C 39.578125 -26.890625 39.554688 -26.945312 39.484375 -27.0625 C 39.253906 -27.289062 38.476562 -27.628906 37.15625 -28.078125 C 35.382812 -28.765625 33.796875 -29.375 32.390625 -29.90625 C 30.503906 -30.582031 29.410156 -30.976562 29.109375 -31.09375 C 28.835938 -31.164062 27.851562 -31.539062 26.15625 -32.21875 L 23.71875 -33.1875 L 21.953125 -31.3125 C 21.273438 -30.632812 18.988281 -28.175781 15.09375 -23.9375 C 12.40625 -21.0625 10.679688 -19.273438 9.921875 -18.578125 C 9.171875 -17.878906 8.679688 -17.625 8.453125 -17.8125 C 8.296875 -17.96875 8.164062 -18.046875 8.0625 -18.046875 C 7.863281 -17.960938 7.378906 -18.015625 6.609375 -18.203125 C 5.835938 -18.398438 5.394531 -18.570312 5.28125 -18.71875 C 5.09375 -18.875 4.957031 -19.234375 4.875 -19.796875 C 4.800781 -20.179688 4.8125 -20.503906 4.90625 -20.765625 C 5 -21.023438 5.3125 -21.554688 5.84375 -22.359375 C 6.632812 -23.566406 7.179688 -24.546875 7.484375 -25.296875 C 7.867188 -26.097656 8.078125 -26.535156 8.109375 -26.609375 L 8.109375 -25.359375 C 7.992188 -24.453125 7.992188 -24 8.109375 -24 C 8.378906 -24 11.425781 -27.269531 17.25 -33.8125 C 20.269531 -37.289062 22.035156 -39.351562 22.546875 -40 C 23.054688 -40.644531 23.3125 -41.191406 23.3125 -41.640625 Z M 23.3125 -41.640625 "/></g></g></g><g fill="#000000" fill-opacity="1"><g transform="translate(199.304265, 184.801805)"><g><path d="M 23.4375 -41.078125 C 23.320312 -41.679688 23.320312 -41.984375 23.4375 -41.984375 C 23.582031 -41.984375 24.0625 -41.726562 24.875 -41.21875 C 25.6875 -40.707031 26.113281 -40.394531 26.15625 -40.28125 C 26.269531 -40.09375 26.800781 -39.710938 27.75 -39.140625 C 28.570312 -38.648438 29.066406 -38.269531 29.234375 -38 C 29.410156 -37.738281 29.347656 -37.421875 29.046875 -37.046875 C 28.742188 -36.671875 28.316406 -36.054688 27.765625 -35.203125 C 27.222656 -34.347656 26.953125 -33.863281 26.953125 -33.75 C 26.953125 -33.75 27.101562 -33.769531 27.40625 -33.8125 C 27.707031 -33.851562 28.101562 -33.945312 28.59375 -34.09375 C 28.894531 -34.164062 29.5 -34.332031 30.40625 -34.59375 C 31.3125 -34.863281 31.878906 -35.019531 32.109375 -35.0625 L 34.046875 -35.625 L 35.453125 -34.890625 C 36.367188 -34.398438 37.070312 -33.984375 37.5625 -33.640625 C 37.976562 -33.222656 38.503906 -32.828125 39.140625 -32.453125 C 39.828125 -31.921875 40.28125 -31.519531 40.5 -31.25 C 40.726562 -30.988281 40.757812 -30.789062 40.59375 -30.65625 C 40.425781 -30.53125 40 -30.390625 39.3125 -30.234375 C 38.445312 -30.046875 37.21875 -29.707031 35.625 -29.21875 C 35.25 -29.0625 34.867188 -28.925781 34.484375 -28.8125 C 34.109375 -28.707031 33.816406 -28.625 33.609375 -28.5625 C 33.398438 -28.507812 33.296875 -28.484375 33.296875 -28.484375 C 33.296875 -28.554688 33.5625 -28.722656 34.09375 -28.984375 C 34.625 -29.253906 34.890625 -29.425781 34.890625 -29.5 C 34.890625 -29.570312 34.578125 -29.46875 33.953125 -29.1875 C 33.328125 -28.90625 32.617188 -28.554688 31.828125 -28.140625 C 31.035156 -27.722656 30.445312 -27.382812 30.0625 -27.125 C 29.914062 -27.039062 29.785156 -26.960938 29.671875 -26.890625 C 29.554688 -26.816406 29.46875 -26.769531 29.40625 -26.75 C 29.351562 -26.726562 29.328125 -26.71875 29.328125 -26.71875 C 29.328125 -26.832031 29.878906 -27.378906 30.984375 -28.359375 C 31.285156 -28.671875 31.546875 -28.957031 31.765625 -29.21875 C 31.992188 -29.476562 32.175781 -29.675781 32.3125 -29.8125 C 32.445312 -29.945312 32.492188 -30.03125 32.453125 -30.0625 C 32.335938 -30.175781 30.671875 -29.6875 27.453125 -28.59375 L 22.640625 -26.953125 L 21.15625 -24.734375 C 20.78125 -24.128906 20.253906 -23.296875 19.578125 -22.234375 C 17.492188 -18.910156 16.316406 -16.953125 16.046875 -16.359375 C 15.785156 -15.773438 15.898438 -15.367188 16.390625 -15.140625 C 16.546875 -15.066406 16.660156 -15.015625 16.734375 -14.984375 C 17.003906 -14.828125 17.175781 -14.691406 17.25 -14.578125 C 17.320312 -14.460938 17.335938 -14.253906 17.296875 -13.953125 C 17.222656 -13.648438 17.113281 -12.347656 16.96875 -10.046875 C 16.8125 -7.847656 16.675781 -5.992188 16.5625 -4.484375 C 16.445312 -2.929688 16.429688 -2.117188 16.515625 -2.046875 C 16.585938 -1.773438 17.550781 -1.8125 19.40625 -2.15625 C 20.351562 -2.34375 21.710938 -2.660156 23.484375 -3.109375 C 25.265625 -3.566406 26.210938 -3.875 26.328125 -4.03125 C 26.441406 -4.101562 26.570312 -5.226562 26.71875 -7.40625 C 26.875 -9.582031 26.910156 -10.707031 26.828125 -10.78125 C 26.753906 -10.851562 26.507812 -10.738281 26.09375 -10.4375 C 25.789062 -10.25 25.535156 -10.132812 25.328125 -10.09375 C 25.117188 -10.0625 24.675781 -10.101562 24 -10.21875 L 22.46875 -10.375 L 20.875 -11.96875 C 19.289062 -13.519531 18.609375 -14.425781 18.828125 -14.6875 C 18.941406 -14.769531 19.207031 -14.734375 19.625 -14.578125 C 20.039062 -14.460938 20.96875 -14.648438 22.40625 -15.140625 C 23.695312 -15.554688 24.867188 -15.992188 25.921875 -16.453125 L 27.234375 -16.90625 L 27.34375 -19 C 27.414062 -20.175781 27.472656 -21.820312 27.515625 -23.9375 L 27.515625 -26.78125 L 28.203125 -26.5 C 28.691406 -26.34375 29.21875 -26.019531 29.78125 -25.53125 C 30.269531 -25.1875 30.929688 -24.75 31.765625 -24.21875 C 32.484375 -23.769531 32.898438 -23.410156 33.015625 -23.140625 C 33.054688 -22.835938 33.019531 -22.117188 32.90625 -20.984375 C 32.75 -19.773438 32.710938 -19.132812 32.796875 -19.0625 C 32.867188 -18.988281 33.335938 -19.101562 34.203125 -19.40625 L 35.515625 -19.90625 L 36.421875 -19.453125 C 37.023438 -19.148438 37.519531 -18.832031 37.90625 -18.5 C 38.46875 -18.007812 38.9375 -17.628906 39.3125 -17.359375 C 40.21875 -16.710938 40.671875 -16.28125 40.671875 -16.0625 C 40.671875 -15.945312 40.390625 -15.832031 39.828125 -15.71875 C 37.929688 -15.414062 36.15625 -14.847656 34.5 -14.015625 C 33.59375 -13.554688 33.140625 -13.40625 33.140625 -13.5625 C 33.171875 -13.632812 33.472656 -13.820312 34.046875 -14.125 L 34.671875 -14.53125 L 34.609375 -14.53125 C 33.210938 -14.070312 32.472656 -13.765625 32.390625 -13.609375 C 32.316406 -13.535156 32.210938 -12.210938 32.078125 -9.640625 C 31.953125 -7.066406 31.90625 -5.765625 31.9375 -5.734375 C 32.019531 -5.691406 32.738281 -5.820312 34.09375 -6.125 C 35.082031 -6.394531 36.484375 -6.695312 38.296875 -7.03125 C 39.617188 -7.300781 40.523438 -7.507812 41.015625 -7.65625 C 41.472656 -7.8125 41.960938 -7.738281 42.484375 -7.4375 C 43.015625 -7.132812 43.960938 -6.429688 45.328125 -5.328125 C 47.671875 -3.441406 48.84375 -2.210938 48.84375 -1.640625 C 48.84375 -1.421875 48.726562 -1.28125 48.5 -1.21875 C 48.28125 -1.164062 47.546875 -1.023438 46.296875 -0.796875 C 43.609375 -0.304688 40.601562 0.523438 37.28125 1.703125 C 35.613281 2.265625 34.816406 2.492188 34.890625 2.390625 C 34.929688 2.304688 35.269531 2.148438 35.90625 1.921875 C 36.175781 1.773438 36.394531 1.65625 36.5625 1.5625 C 36.738281 1.46875 36.828125 1.421875 36.828125 1.421875 C 36.785156 1.347656 36.257812 1.507812 35.25 1.90625 C 34.25 2.300781 33.390625 2.664062 32.671875 3 C 32.453125 3.15625 32.238281 3.28125 32.03125 3.375 C 31.820312 3.46875 31.648438 3.539062 31.515625 3.59375 C 31.378906 3.65625 31.3125 3.664062 31.3125 3.625 C 31.3125 3.59375 32.410156 2.765625 34.609375 1.140625 C 36.804688 -0.492188 37.90625 -1.363281 37.90625 -1.46875 C 37.90625 -1.582031 37.0625 -1.429688 35.375 -1.015625 C 33.6875 -0.597656 31.71875 -0.0507812 29.46875 0.625 C 27.21875 1.300781 25.335938 1.925781 23.828125 2.5 C 22.429688 3.03125 21.4375 3.226562 20.84375 3.09375 C 20.257812 2.957031 19.363281 2.34375 18.15625 1.25 C 17.175781 0.375 16.644531 -0.0625 16.5625 -0.0625 C 16.445312 -0.0625 16.351562 0.351562 16.28125 1.1875 C 16.207031 2.019531 16.171875 2.890625 16.171875 3.796875 C 16.171875 4.671875 16.101562 5.15625 15.96875 5.25 C 15.832031 5.34375 15.367188 5.238281 14.578125 4.9375 C 13.859375 4.664062 13.441406 4.570312 13.328125 4.65625 C 13.179688 4.726562 13.03125 4.671875 12.875 4.484375 C 12.6875 4.253906 12.476562 4.140625 12.25 4.140625 C 12.101562 4.179688 11.972656 4.125 11.859375 3.96875 C 11.742188 3.820312 11.609375 3.519531 11.453125 3.0625 C 11.304688 2.457031 11.242188 1.859375 11.265625 1.265625 C 11.285156 0.679688 11.425781 -1.097656 11.6875 -4.078125 C 11.988281 -8.203125 12.140625 -10.285156 12.140625 -10.328125 C 12.140625 -10.441406 11.707031 -9.835938 10.84375 -8.515625 C 10.039062 -7.296875 9.15625 -6.082031 8.1875 -4.875 C 7.226562 -3.664062 6.632812 -3.003906 6.40625 -2.890625 C 6.21875 -2.859375 6.066406 -2.894531 5.953125 -3 C 5.921875 -3.15625 5.601562 -3.269531 5 -3.34375 C 4.425781 -3.457031 3.988281 -3.570312 3.6875 -3.6875 C 3.53125 -3.757812 3.300781 -3.890625 3 -4.078125 C 2.78125 -4.160156 2.59375 -4.484375 2.4375 -5.046875 C 2.320312 -5.460938 2.285156 -5.800781 2.328125 -6.0625 C 2.367188 -6.332031 2.554688 -6.898438 2.890625 -7.765625 C 3.304688 -8.941406 3.628906 -10.132812 3.859375 -11.34375 C 4.421875 -14.488281 4.816406 -16.171875 5.046875 -16.390625 C 5.085938 -16.390625 5.109375 -16.3125 5.109375 -16.15625 C 5.109375 -16.007812 5.109375 -15.773438 5.109375 -15.453125 C 5.109375 -15.140625 5.109375 -14.800781 5.109375 -14.4375 C 5.109375 -14.082031 5.085938 -13.65625 5.046875 -13.15625 C 5.015625 -12.363281 5 -11.757812 5 -11.34375 C 5 -10.925781 5.003906 -10.601562 5.015625 -10.375 C 5.035156 -10.15625 5.054688 -10.015625 5.078125 -9.953125 C 5.097656 -9.898438 5.164062 -9.875 5.28125 -9.875 C 5.46875 -9.875 5.5625 -9.945312 5.5625 -10.09375 C 5.5625 -10.132812 5.566406 -10.25 5.578125 -10.4375 C 5.597656 -10.625 5.609375 -10.867188 5.609375 -11.171875 C 5.609375 -11.472656 5.609375 -11.757812 5.609375 -12.03125 L 5.609375 -13.734375 L 5.78125 -12.3125 C 5.863281 -11.21875 6 -10.671875 6.1875 -10.671875 C 6.257812 -10.671875 6.351562 -10.765625 6.46875 -10.953125 C 7.113281 -11.859375 8.5625 -14.238281 10.8125 -18.09375 C 13.0625 -21.957031 14.144531 -23.90625 14.0625 -23.9375 C 13.988281 -24.019531 13.726562 -23.984375 13.28125 -23.828125 C 12.78125 -23.640625 12.117188 -23.660156 11.296875 -23.890625 C 10.460938 -24.148438 9.78125 -24.410156 9.25 -24.671875 C 8.675781 -25.054688 7.867188 -25.664062 6.828125 -26.5 C 5.796875 -27.332031 5.257812 -27.820312 5.21875 -27.96875 C 5.175781 -28.039062 5.269531 -28.097656 5.5 -28.140625 C 5.65625 -28.179688 5.941406 -28.203125 6.359375 -28.203125 C 7.191406 -28.203125 8.039062 -28.332031 8.90625 -28.59375 C 9.476562 -28.75 11.066406 -29.1875 13.671875 -29.90625 C 15.941406 -30.539062 17.304688 -30.972656 17.765625 -31.203125 C 18.023438 -31.316406 18.304688 -31.5625 18.609375 -31.9375 C 18.910156 -32.320312 19.382812 -33.097656 20.03125 -34.265625 C 21.007812 -35.972656 21.859375 -37.429688 22.578125 -38.640625 C 23.035156 -39.316406 23.3125 -39.773438 23.40625 -40.015625 C 23.5 -40.265625 23.507812 -40.617188 23.4375 -41.078125 Z M 23.4375 -41.078125 "/></g></g></g><g fill="#000000" fill-opacity="1"><g transform="translate(250.34576, 184.801805)"><g><path d="M 13.453125 -31.265625 C 13.035156 -32.097656 12.828125 -32.625 12.828125 -32.84375 C 12.828125 -33.070312 13.375 -32.882812 14.46875 -32.28125 C 15.53125 -31.71875 16.367188 -31.1875 16.984375 -30.6875 C 17.609375 -30.195312 18.222656 -29.800781 18.828125 -29.5 C 19.328125 -29.238281 19.71875 -28.9375 20 -28.59375 C 20.28125 -28.25 20.382812 -27.984375 20.3125 -27.796875 C 20.15625 -27.421875 19.738281 -23.335938 19.0625 -15.546875 C 18.71875 -11.421875 18.601562 -9.335938 18.71875 -9.296875 C 18.988281 -9.191406 19.382812 -8.921875 19.90625 -8.484375 C 20.4375 -8.046875 20.78125 -7.695312 20.9375 -7.4375 C 21.164062 -7.050781 21.65625 -6.632812 22.40625 -6.1875 C 23.195312 -5.800781 23.59375 -5.515625 23.59375 -5.328125 C 23.59375 -5.140625 23.273438 -4.875 22.640625 -4.53125 C 21.992188 -4.195312 20.953125 -3.5 19.515625 -2.4375 C 18.078125 -1.34375 17.300781 -0.890625 17.1875 -1.078125 C 17.070312 -1.265625 16.941406 -1.242188 16.796875 -1.015625 C 16.679688 -0.828125 16.453125 -0.523438 16.109375 -0.109375 C 15.847656 0.191406 15.71875 0.265625 15.71875 0.109375 C 15.71875 0.0351562 15.773438 -0.1875 15.890625 -0.5625 C 16.003906 -0.75 15.960938 -0.84375 15.765625 -0.84375 C 15.460938 -0.84375 14.046875 0.078125 11.515625 1.921875 C 10.566406 2.566406 10.023438 2.890625 9.890625 2.890625 C 9.765625 2.890625 9.53125 2.773438 9.1875 2.546875 C 8.925781 2.328125 8.644531 2.234375 8.34375 2.265625 C 8.039062 2.347656 7.796875 2.273438 7.609375 2.046875 C 7.453125 1.816406 7.222656 1.703125 6.921875 1.703125 C 6.691406 1.703125 6.273438 1.53125 5.671875 1.1875 C 5.296875 0.957031 5.019531 0.710938 4.84375 0.453125 C 4.675781 0.191406 4.476562 -0.222656 4.25 -0.796875 C 3.832031 -1.703125 3.625 -2.191406 3.625 -2.265625 C 3.625 -2.347656 3.875 -2.390625 4.375 -2.390625 C 4.976562 -2.390625 7.300781 -3.5625 11.34375 -5.90625 C 11.414062 -5.9375 11.507812 -5.992188 11.625 -6.078125 C 12.039062 -6.296875 12.296875 -6.613281 12.390625 -7.03125 C 12.484375 -7.445312 12.628906 -8.789062 12.828125 -11.0625 C 12.859375 -11.632812 12.875 -12.085938 12.875 -12.421875 C 13.144531 -15.109375 13.179688 -16.453125 12.984375 -16.453125 C 12.953125 -16.453125 12.898438 -16.375 12.828125 -16.21875 C 12.671875 -15.957031 12.46875 -15.632812 12.21875 -15.25 C 11.976562 -14.875 11.753906 -14.554688 11.546875 -14.296875 C 11.335938 -14.035156 11.234375 -13.921875 11.234375 -13.953125 C 11.234375 -13.953125 11.363281 -14.273438 11.625 -14.921875 C 11.894531 -15.566406 11.992188 -15.925781 11.921875 -16 C 11.878906 -16.039062 11.210938 -15.585938 9.921875 -14.640625 C 9.015625 -13.992188 8.4375 -13.613281 8.1875 -13.5 C 7.945312 -13.382812 7.753906 -13.40625 7.609375 -13.5625 C 7.378906 -13.75 7.117188 -13.84375 6.828125 -13.84375 C 6.546875 -13.84375 6.3125 -13.9375 6.125 -14.125 C 5.894531 -14.3125 5.671875 -14.40625 5.453125 -14.40625 C 5.179688 -14.40625 4.78125 -14.539062 4.25 -14.8125 C 3.71875 -15.070312 3.320312 -15.5625 3.0625 -16.28125 C 2.800781 -16.925781 2.628906 -17.570312 2.546875 -18.21875 L 2.390625 -19.125 L 3.125 -18.5 C 3.613281 -18.039062 3.953125 -17.890625 4.140625 -18.046875 C 4.296875 -18.160156 4.65625 -18.3125 5.21875 -18.5 C 5.707031 -18.6875 7.097656 -19.304688 9.390625 -20.359375 C 11.679688 -21.421875 12.957031 -22.046875 13.21875 -22.234375 C 13.40625 -22.347656 13.535156 -22.628906 13.609375 -23.078125 C 13.691406 -23.535156 13.769531 -24.597656 13.84375 -26.265625 L 14.0625 -30.015625 Z M 40.84375 -19.0625 C 41.375 -19.519531 41.601562 -19.800781 41.53125 -19.90625 C 41.375 -20.019531 39.914062 -18.789062 37.15625 -16.21875 C 36.175781 -15.28125 35.628906 -14.8125 35.515625 -14.8125 C 35.398438 -14.8125 35.644531 -15.265625 36.25 -16.171875 C 36.820312 -17.078125 37.257812 -17.8125 37.5625 -18.375 L 37.953125 -19.234375 L 37.5 -19 C 36.9375 -18.695312 35.988281 -18.140625 34.65625 -17.328125 C 33.332031 -16.515625 32.65625 -16.09375 32.625 -16.0625 C 32.507812 -15.789062 32.347656 -14.082031 32.140625 -10.9375 C 31.929688 -7.800781 31.863281 -5.6875 31.9375 -4.59375 C 31.9375 -4.332031 32.296875 -4.257812 33.015625 -4.375 C 33.503906 -4.445312 34.546875 -4.632812 36.140625 -4.9375 C 39.847656 -5.726562 41.773438 -6.296875 41.921875 -6.640625 C 42.035156 -6.867188 42.265625 -7.867188 42.609375 -9.640625 C 42.953125 -11.421875 43.195312 -12.820312 43.34375 -13.84375 C 43.414062 -14.9375 43.476562 -16.132812 43.53125 -17.4375 C 43.59375 -18.75 43.566406 -19.441406 43.453125 -19.515625 C 43.378906 -19.628906 42.34375 -19.023438 40.34375 -17.703125 C 38.332031 -16.304688 37.289062 -15.609375 37.21875 -15.609375 C 37.175781 -15.609375 37.328125 -15.773438 37.671875 -16.109375 C 38.015625 -16.453125 38.46875 -16.890625 39.03125 -17.421875 C 39.601562 -17.953125 40.207031 -18.5 40.84375 -19.0625 Z M 26.5 -39.265625 L 27.625 -39.140625 C 28.269531 -39.066406 28.875 -38.878906 29.4375 -38.578125 C 29.96875 -38.316406 30.328125 -38.1875 30.515625 -38.1875 C 30.671875 -38.1875 30.863281 -37.882812 31.09375 -37.28125 C 31.28125 -36.894531 31.445312 -36.644531 31.59375 -36.53125 C 31.75 -36.414062 31.957031 -36.320312 32.21875 -36.25 C 32.789062 -36.175781 33.390625 -35.976562 34.015625 -35.65625 C 34.640625 -35.332031 35.007812 -35.054688 35.125 -34.828125 C 35.226562 -34.566406 35.128906 -33.644531 34.828125 -32.0625 C 34.492188 -30.425781 34.179688 -28.578125 33.890625 -26.515625 C 33.609375 -24.460938 33.503906 -23.382812 33.578125 -23.28125 C 33.660156 -23.1875 34.722656 -23.785156 36.765625 -25.078125 C 38.804688 -26.359375 39.976562 -27 40.28125 -27 C 40.507812 -27 41.140625 -26.664062 42.171875 -26 C 43.210938 -25.34375 43.734375 -24.941406 43.734375 -24.796875 C 43.734375 -24.609375 43.941406 -24.304688 44.359375 -23.890625 C 44.773438 -23.472656 45.234375 -23.148438 45.734375 -22.921875 C 46.941406 -22.203125 46.992188 -21.554688 45.890625 -20.984375 C 45.554688 -20.796875 45.3125 -20.632812 45.15625 -20.5 C 45.007812 -20.375 44.925781 -20.101562 44.90625 -19.6875 C 44.882812 -19.269531 44.929688 -18.804688 45.046875 -18.296875 C 45.160156 -17.785156 45.367188 -16.925781 45.671875 -15.71875 C 46.046875 -14.164062 46.367188 -12.671875 46.640625 -11.234375 C 46.828125 -9.867188 46.976562 -9.128906 47.09375 -9.015625 C 47.207031 -8.867188 47.222656 -9.097656 47.140625 -9.703125 C 46.953125 -11.398438 46.441406 -13.878906 45.609375 -17.140625 C 45.273438 -18.304688 45.109375 -19.097656 45.109375 -19.515625 C 45.140625 -19.929688 45.195312 -20.007812 45.28125 -19.75 C 45.382812 -19.25 45.628906 -18.414062 46.015625 -17.25 C 46.992188 -14.101562 47.769531 -11.09375 48.34375 -8.21875 C 48.757812 -6.289062 48.992188 -5.003906 49.046875 -4.359375 C 49.097656 -3.722656 49.015625 -3.21875 48.796875 -2.84375 C 48.523438 -2.226562 47.765625 -1.722656 46.515625 -1.328125 C 45.273438 -0.929688 42.210938 -0.1875 37.328125 0.90625 L 33.640625 1.703125 L 32.34375 1.421875 C 29.3125 0.703125 27.550781 0.0976562 27.0625 -0.390625 C 26.226562 -1.148438 25.753906 -2.738281 25.640625 -5.15625 C 25.566406 -6.445312 25.601562 -8.632812 25.75 -11.71875 C 25.90625 -14.800781 26.113281 -17.570312 26.375 -20.03125 C 26.601562 -22.332031 26.859375 -25.304688 27.140625 -28.953125 C 27.429688 -32.609375 27.578125 -34.796875 27.578125 -35.515625 C 27.578125 -36.234375 27.441406 -36.765625 27.171875 -37.109375 C 26.941406 -37.441406 26.773438 -37.894531 26.671875 -38.46875 Z M 26.5 -39.265625 "/></g></g></g><g fill="#000000" fill-opacity="1"><g transform="translate(301.387255, 184.801805)"><g><path d="M 29.90625 -40.34375 C 29.976562 -40.488281 30.25 -40.523438 30.71875 -40.453125 C 31.195312 -40.378906 31.765625 -40.171875 32.421875 -39.828125 C 33.085938 -39.484375 33.570312 -39.160156 33.875 -38.859375 C 34.363281 -38.410156 34.679688 -38.1875 34.828125 -38.1875 C 35.023438 -38.1875 35.378906 -38.050781 35.890625 -37.78125 C 36.398438 -37.519531 36.726562 -37.273438 36.875 -37.046875 C 37.0625 -36.816406 36.957031 -36.519531 36.5625 -36.15625 C 36.164062 -35.800781 35.269531 -35.171875 33.875 -34.265625 C 32.550781 -33.359375 31.394531 -32.507812 30.40625 -31.71875 C 29.570312 -31.070312 29.082031 -30.75 28.9375 -30.75 C 28.664062 -30.75 28.039062 -30.3125 27.0625 -29.4375 C 26.6875 -29.101562 26.503906 -28.992188 26.515625 -29.109375 C 26.535156 -29.222656 26.773438 -29.675781 27.234375 -30.46875 C 27.796875 -31.414062 28.507812 -32.765625 29.375 -34.515625 C 30.25 -36.273438 30.726562 -37.304688 30.8125 -37.609375 C 30.882812 -37.953125 30.75 -38.445312 30.40625 -39.09375 C 30.070312 -39.695312 29.90625 -40.113281 29.90625 -40.34375 Z M 14.46875 -15.484375 C 14.507812 -15.597656 14.53125 -15.722656 14.53125 -15.859375 C 14.53125 -15.992188 14.53125 -16.085938 14.53125 -16.140625 C 14.53125 -16.191406 14.507812 -16.21875 14.46875 -16.21875 C 14.28125 -16.1875 13.628906 -15.847656 12.515625 -15.203125 C 11.398438 -14.554688 10.84375 -14.175781 10.84375 -14.0625 C 10.84375 -13.988281 11.34375 -13.523438 12.34375 -12.671875 C 13.34375 -11.828125 13.9375 -11.367188 14.125 -11.296875 C 14.28125 -11.253906 14.359375 -11.816406 14.359375 -12.984375 C 14.359375 -14.085938 14.394531 -14.921875 14.46875 -15.484375 Z M 12.703125 -21.046875 C 11.910156 -22.035156 11.398438 -22.640625 11.171875 -22.859375 L 10.375 -23.71875 L 10.328125 -22.640625 C 10.253906 -22.035156 10.195312 -21.375 10.15625 -20.65625 C 10.113281 -19.9375 10.101562 -19.328125 10.125 -18.828125 C 10.144531 -18.335938 10.191406 -18.09375 10.265625 -18.09375 C 10.492188 -18.09375 11.097656 -18.347656 12.078125 -18.859375 C 13.066406 -19.367188 13.5625 -19.664062 13.5625 -19.75 C 13.5625 -19.9375 13.273438 -20.367188 12.703125 -21.046875 Z M 37.28125 -25.921875 C 37.84375 -26.753906 38.085938 -27.210938 38.015625 -27.296875 C 38.015625 -27.328125 37.503906 -27.019531 36.484375 -26.375 C 36.367188 -26.34375 34.6875 -25.285156 31.4375 -23.203125 C 29.007812 -21.722656 27.664062 -20.890625 27.40625 -20.703125 C 26.945312 -20.328125 27.304688 -19.953125 28.484375 -19.578125 C 29.117188 -19.347656 29.492188 -19.046875 29.609375 -18.671875 L 29.78125 -18.15625 L 32.21875 -19.859375 C 33.8125 -20.992188 34.738281 -21.664062 35 -21.875 C 35.269531 -22.082031 35.40625 -22.503906 35.40625 -23.140625 C 35.40625 -23.785156 35.347656 -24.257812 35.234375 -24.5625 C 35.160156 -24.832031 35.175781 -24.96875 35.28125 -24.96875 C 35.394531 -24.96875 35.703125 -24.867188 36.203125 -24.671875 C 36.347656 -24.640625 36.707031 -25.054688 37.28125 -25.921875 Z M 14.984375 -26.546875 C 15.015625 -28.171875 14.992188 -28.984375 14.921875 -28.984375 C 14.847656 -28.984375 14.335938 -28.578125 13.390625 -27.765625 C 12.441406 -26.953125 11.96875 -26.5 11.96875 -26.40625 C 11.96875 -26.3125 12.429688 -25.875 13.359375 -25.09375 C 14.285156 -24.320312 14.785156 -23.957031 14.859375 -24 C 14.898438 -24.070312 14.941406 -24.921875 14.984375 -26.546875 Z M 11.171875 -41.984375 C 11.171875 -42.171875 11.191406 -42.265625 11.234375 -42.265625 C 11.304688 -42.265625 11.535156 -42.171875 11.921875 -41.984375 C 12.554688 -41.722656 13.066406 -41.4375 13.453125 -41.125 C 13.972656 -40.789062 14.535156 -40.472656 15.140625 -40.171875 C 15.640625 -39.941406 15.960938 -39.738281 16.109375 -39.5625 C 16.265625 -39.394531 16.300781 -39.21875 16.21875 -39.03125 C 16.144531 -38.84375 15.503906 -38.257812 14.296875 -37.28125 C 13.203125 -36.332031 12.03125 -35.289062 10.78125 -34.15625 C 9.382812 -32.90625 8.6875 -32.359375 8.6875 -32.515625 C 8.6875 -32.585938 8.738281 -32.738281 8.84375 -32.96875 C 9.070312 -33.382812 9.128906 -33.59375 9.015625 -33.59375 C 8.898438 -33.59375 8.691406 -33.4375 8.390625 -33.125 C 8.085938 -32.820312 7.9375 -32.617188 7.9375 -32.515625 C 7.9375 -32.316406 8.109375 -32.078125 8.453125 -31.796875 C 8.796875 -31.515625 9.175781 -31.316406 9.59375 -31.203125 C 10.039062 -31.054688 10.359375 -30.882812 10.546875 -30.6875 C 10.742188 -30.539062 10.972656 -30.523438 11.234375 -30.640625 C 11.492188 -30.753906 12.117188 -31.128906 13.109375 -31.765625 C 14.273438 -32.523438 14.972656 -33.054688 15.203125 -33.359375 C 15.429688 -33.660156 15.546875 -34.226562 15.546875 -35.0625 C 15.546875 -35.550781 15.570312 -35.820312 15.625 -35.875 C 15.6875 -35.9375 15.847656 -35.929688 16.109375 -35.859375 C 16.566406 -35.785156 16.925781 -35.707031 17.1875 -35.625 C 17.570312 -35.550781 17.816406 -35.382812 17.921875 -35.125 C 18.078125 -34.894531 18.515625 -34.609375 19.234375 -34.265625 C 19.953125 -33.921875 20.441406 -33.617188 20.703125 -33.359375 C 20.890625 -33.097656 20.992188 -32.898438 21.015625 -32.765625 C 21.035156 -32.628906 20.972656 -32.316406 20.828125 -31.828125 C 20.441406 -30.234375 20.117188 -27.585938 19.859375 -23.890625 C 19.785156 -23.054688 19.753906 -22.535156 19.765625 -22.328125 C 19.785156 -22.117188 19.875 -21.976562 20.03125 -21.90625 C 20.289062 -21.820312 20.6875 -21.972656 21.21875 -22.359375 C 21.675781 -22.691406 23.148438 -23.597656 25.640625 -25.078125 C 26.285156 -25.492188 27.34375 -26.144531 28.8125 -27.03125 C 30.289062 -27.914062 31.257812 -28.492188 31.71875 -28.765625 C 35.914062 -31.296875 38.164062 -32.5625 38.46875 -32.5625 C 38.65625 -32.5625 39.203125 -32.296875 40.109375 -31.765625 C 41.015625 -31.242188 41.769531 -30.753906 42.375 -30.296875 C 43.019531 -29.835938 43.515625 -29.515625 43.859375 -29.328125 C 44.046875 -29.253906 44.1875 -29.160156 44.28125 -29.046875 C 44.375 -28.929688 44.398438 -28.859375 44.359375 -28.828125 C 44.285156 -28.710938 43.832031 -28.445312 43 -28.03125 C 42.132812 -27.613281 41.148438 -27.046875 40.046875 -26.328125 C 39.222656 -25.753906 38.789062 -25.488281 38.75 -25.53125 C 38.707031 -25.570312 38.988281 -25.910156 39.59375 -26.546875 C 39.976562 -26.960938 40.128906 -27.171875 40.046875 -27.171875 C 39.898438 -27.171875 39.375 -26.753906 38.46875 -25.921875 L 37.15625 -24.5625 L 37.90625 -23.828125 C 38.351562 -23.296875 38.972656 -22.804688 39.765625 -22.359375 C 40.222656 -22.128906 40.523438 -21.945312 40.671875 -21.8125 C 40.828125 -21.675781 40.96875 -21.539062 41.09375 -21.40625 C 41.226562 -21.28125 41.273438 -21.054688 41.234375 -20.734375 C 41.203125 -20.410156 41.148438 -20.109375 41.078125 -19.828125 C 41.003906 -19.546875 40.867188 -19.046875 40.671875 -18.328125 C 37.347656 -7.359375 35.910156 -1.875 36.359375 -1.875 C 36.742188 -1.875 37.867188 -2.28125 39.734375 -3.09375 C 41.609375 -3.90625 42.660156 -4.460938 42.890625 -4.765625 C 43.265625 -5.253906 43.453125 -8.582031 43.453125 -14.75 C 43.453125 -18.5 43.5 -20.4375 43.59375 -20.5625 C 43.6875 -20.695312 43.890625 -20.023438 44.203125 -18.546875 L 44.203125 -18.5 L 44.59375 -16.734375 C 44.59375 -16.773438 44.613281 -17.003906 44.65625 -17.421875 L 44.765625 -18.5 L 45.5625 -15.828125 C 46.164062 -13.785156 47.015625 -11.195312 48.109375 -8.0625 C 49.285156 -4.613281 49.875 -2.703125 49.875 -2.328125 C 49.875 -1.867188 49.625 -1.453125 49.125 -1.078125 C 48.300781 -0.398438 46.894531 0.316406 44.90625 1.078125 C 42.914062 1.835938 41.1875 2.3125 39.71875 2.5 C 37.75 2.757812 35.535156 2.566406 33.078125 1.921875 C 32.242188 1.660156 31.675781 1.414062 31.375 1.1875 C 31.070312 0.957031 30.804688 0.5625 30.578125 0 C 30.429688 -0.375 30.359375 -0.710938 30.359375 -1.015625 C 30.359375 -1.316406 30.410156 -1.847656 30.515625 -2.609375 C 30.828125 -4.878906 31.585938 -8.394531 32.796875 -13.15625 C 33.429688 -15.46875 33.722656 -16.660156 33.671875 -16.734375 C 33.617188 -16.804688 33.132812 -16.445312 32.21875 -15.65625 C 31.613281 -15.164062 31.207031 -14.875 31 -14.78125 C 30.789062 -14.6875 30.535156 -14.695312 30.234375 -14.8125 C 30.234375 -14.8125 30.21875 -14.8125 30.1875 -14.8125 C 29.539062 -15.070312 29.113281 -15.066406 28.90625 -14.796875 C 28.695312 -14.535156 28.363281 -13.535156 27.90625 -11.796875 C 27.875 -11.648438 27.835938 -11.554688 27.796875 -11.515625 C 27.234375 -9.398438 26.515625 -6.976562 25.640625 -4.25 C 24.773438 -1.53125 24.25 -0.0546875 24.0625 0.171875 C 23.945312 0.316406 23.789062 0.378906 23.59375 0.359375 C 23.40625 0.347656 22.992188 0.265625 22.359375 0.109375 C 21.523438 -0.078125 20.984375 -0.273438 20.734375 -0.484375 C 20.492188 -0.691406 20.296875 -1.078125 20.140625 -1.640625 C 20.066406 -1.984375 19.972656 -2.679688 19.859375 -3.734375 C 19.742188 -4.796875 19.644531 -5.769531 19.5625 -6.65625 C 19.488281 -7.550781 19.492188 -7.976562 19.578125 -7.9375 C 19.691406 -7.863281 19.75 -7.753906 19.75 -7.609375 C 19.75 -7.453125 19.820312 -7.097656 19.96875 -6.546875 C 20.125 -6.003906 20.285156 -5.492188 20.453125 -5.015625 C 20.617188 -4.546875 20.703125 -4.347656 20.703125 -4.421875 C 20.929688 -4.578125 21.671875 -6.660156 22.921875 -10.671875 C 24.171875 -14.679688 24.945312 -17.234375 25.25 -18.328125 C 25.28125 -18.628906 25.273438 -18.804688 25.234375 -18.859375 C 25.203125 -18.921875 25.015625 -18.953125 24.671875 -18.953125 C 23.347656 -18.984375 22.578125 -19.097656 22.359375 -19.296875 C 22.203125 -19.398438 22.066406 -19.414062 21.953125 -19.34375 C 21.804688 -19.269531 21.492188 -19.328125 21.015625 -19.515625 C 20.546875 -19.703125 20.175781 -19.910156 19.90625 -20.140625 C 19.71875 -20.296875 19.585938 -20.179688 19.515625 -19.796875 C 19.472656 -19.566406 19.453125 -19.132812 19.453125 -18.5 C 19.304688 -17.175781 19.234375 -12.910156 19.234375 -5.703125 C 19.234375 1.503906 19.175781 5.144531 19.0625 5.21875 C 18.988281 5.332031 18.742188 5.296875 18.328125 5.109375 C 17.910156 4.953125 17.4375 4.859375 16.90625 4.828125 C 16.34375 4.785156 16.039062 4.648438 16 4.421875 C 15.925781 4.191406 15.8125 4.15625 15.65625 4.3125 C 15.28125 4.613281 14.941406 4.382812 14.640625 3.625 C 14.453125 3.132812 14.359375 1.738281 14.359375 -0.5625 L 14.359375 -4.03125 L 12.984375 -5.28125 C 12.191406 -6 11.890625 -6.359375 12.078125 -6.359375 C 12.191406 -6.359375 12.457031 -6.28125 12.875 -6.125 C 12.988281 -6.125 13.007812 -6.144531 12.9375 -6.1875 C 12.707031 -6.601562 12.082031 -7.128906 11.0625 -7.765625 C 10.945312 -7.804688 10.875 -7.847656 10.84375 -7.890625 C 10.269531 -8.191406 9.984375 -8.398438 9.984375 -8.515625 C 9.984375 -8.585938 10.210938 -8.546875 10.671875 -8.390625 C 11.160156 -8.273438 11.441406 -8.242188 11.515625 -8.296875 C 11.585938 -8.359375 11.347656 -8.851562 10.796875 -9.78125 C 10.253906 -10.707031 9.910156 -11.226562 9.765625 -11.34375 C 9.648438 -11.457031 9.550781 -11.398438 9.46875 -11.171875 C 9.4375 -11.054688 9.304688 -8.828125 9.078125 -4.484375 C 8.847656 -0.128906 8.703125 2.0625 8.640625 2.09375 C 8.585938 2.132812 8.316406 2.066406 7.828125 1.890625 C 7.335938 1.722656 6.941406 1.640625 6.640625 1.640625 C 6.367188 1.679688 6.1875 1.613281 6.09375 1.4375 C 6 1.269531 5.820312 1.207031 5.5625 1.25 C 5.375 1.289062 5.234375 1.257812 5.140625 1.15625 C 5.046875 1.0625 4.96875 0.785156 4.90625 0.328125 C 4.851562 -0.117188 4.84375 -0.691406 4.875 -1.390625 C 4.914062 -2.085938 4.972656 -3.117188 5.046875 -4.484375 C 5.347656 -8.722656 5.453125 -10.84375 5.359375 -10.84375 C 5.265625 -10.84375 5.144531 -10.742188 5 -10.546875 C 4.882812 -10.429688 4.726562 -10.394531 4.53125 -10.4375 C 4.34375 -10.476562 3.96875 -10.613281 3.40625 -10.84375 C 2.644531 -11.21875 2.101562 -11.535156 1.78125 -11.796875 C 1.46875 -12.066406 1.210938 -12.410156 1.015625 -12.828125 C 0.941406 -13.085938 0.914062 -13.253906 0.9375 -13.328125 C 0.957031 -13.410156 1.039062 -13.453125 1.1875 -13.453125 C 1.488281 -13.453125 2.320312 -13.789062 3.6875 -14.46875 L 5.734375 -15.484375 L 5.84375 -16.90625 C 5.882812 -17.78125 6 -20.367188 6.1875 -24.671875 L 6.46875 -31.140625 L 6.015625 -31.828125 C 5.484375 -32.703125 5.40625 -33.140625 5.78125 -33.140625 C 5.820312 -33.140625 5.863281 -33.117188 5.90625 -33.078125 C 6.46875 -32.890625 6.84375 -32.851562 7.03125 -32.96875 C 7.21875 -33.082031 7.578125 -33.609375 8.109375 -34.546875 C 10.453125 -38.597656 11.53125 -40.832031 11.34375 -41.25 C 11.226562 -41.507812 11.171875 -41.753906 11.171875 -41.984375 Z M 11.171875 -41.984375 "/></g></g></g></svg>