<?xml version="1.0" standalone="no"?><!DOCTYPE svg PUBLIC "-//W3C//DTD SVG 1.1//EN" "http://www.w3.org/Graphics/SVG/1.1/DTD/svg11.dtd"><svg t="1722136973066" class="icon" viewBox="0 0 1113 1024" version="1.1" xmlns="http://www.w3.org/2000/svg" p-id="6240" xmlns:xlink="http://www.w3.org/1999/xlink" width="217.3828125" height="200"><path d="M884.267098 1023.98219h-171.198741a22.262515 22.262515 0 0 1 0-44.52503h171.198741a58.77304 58.77304 0 0 0 58.327789-59.21829v-489.775331a22.262515 22.262515 0 0 1 44.525031 0v489.775331a103.29807 103.29807 0 0 1-102.85282 103.74332zM408.071901 1023.98219h-169.41774a103.29807 103.29807 0 0 1-102.852819-103.74332v-489.775331a22.262515 22.262515 0 0 1 44.52503 0v489.775331a58.77304 58.77304 0 0 0 58.327789 59.21829h148.045726l2.226251-249.562794a22.262515 22.262515 0 0 1 22.262515-22.262515l351.302488 2.448877a22.262515 22.262515 0 0 1 22.262515 22.262515 22.262515 22.262515 0 0 1-22.262515 22.262515l-329.039973-2.226252-2.226251 249.340169a22.262515 22.262515 0 0 1-23.153016 22.262515z" fill="#666666" p-id="6241"></path><path d="M22.262515 589.195271a22.262515 22.262515 0 0 1-15.806386-37.846276L544.763743 6.585252a22.262515 22.262515 0 0 1 31.612772 0l530.515734 536.526613a22.262515 22.262515 0 1 1-31.612772 31.390146L560.570129 53.781784 38.291526 582.516516a22.262515 22.262515 0 0 1-16.029011 6.678755z" fill="#666666" p-id="6242"></path></svg>