<?xml version="1.0" standalone="no"?><!DOCTYPE svg PUBLIC "-//W3C//DTD SVG 1.1//EN" "http://www.w3.org/Graphics/SVG/1.1/DTD/svg11.dtd"><svg t="1722136633910" class="icon" viewBox="0 0 1140 1024" version="1.1" xmlns="http://www.w3.org/2000/svg" p-id="4323" xmlns:xlink="http://www.w3.org/1999/xlink" width="222.65625" height="200"><path d="M783.276792 974.565469h-654.408631A79.535818 79.535818 0 0 1 50.339125 895.02965V129.874944A79.535818 79.535818 0 0 1 128.868161 50.339125h650.381501a25.169563 25.169563 0 1 0 4.530521-50.339125h-654.408631A129.371552 129.371552 0 0 0 0 129.371552v765.154707a129.371552 129.371552 0 0 0 129.371552 129.371553h650.381501a25.169563 25.169563 0 1 0 4.530521-50.339126z" fill="#2c2c2c" p-id="4324"></path><path d="M1128.603193 492.316647l-151.017377-151.017376-25.672954-25.672954-28.693301-28.693302a25.169563 25.169563 0 0 0-37.754344 33.223823l44.29843 44.29843 124.33764 124.841031h-493.32343a25.169563 25.169563 0 0 0 0 50.339126h493.32343L940.838255 654.408631l-7.047478 7.047477-50.339125 50.339126a25.672954 25.672954 0 0 0 4.02713 30.203475 24.666171 24.666171 0 0 0 17.618694 7.047478 28.18991 28.18991 0 0 0 20.13565-8.557652l14.094955-13.591564 38.257735-38.257735 7.047478-7.047477 148.50042-151.017377a24.666171 24.666171 0 0 0 7.047477-19.128867 24.666171 24.666171 0 0 0-7.047477-19.128868z" fill="#2c2c2c" p-id="4325"></path></svg>