<?xml version="1.0" standalone="no"?><!DOCTYPE svg PUBLIC "-//W3C//DTD SVG 1.1//EN" "http://www.w3.org/Graphics/SVG/1.1/DTD/svg11.dtd"><svg t="1722134435042" class="icon" viewBox="0 0 1026 1024" version="1.1" xmlns="http://www.w3.org/2000/svg" p-id="2349" xmlns:xlink="http://www.w3.org/1999/xlink" width="200.390625" height="200"><path d="M513.115468 0C229.786492 0 0 229.786492 0 513.115468c0 60.235294 11.154684 122.701525 33.464052 180.705883l8.923748 15.616557c4.461874 8.923747 11.154684 11.154684 20.078431 11.154685h2.230937c4.461874 0 11.154684-2.230937 15.616557-4.461874l176.244009-149.472767 136.087146 122.701525c8.923747 8.923747 22.309368 6.69281 31.233116 0l336.871459-323.485839v178.474946c0 13.385621 8.923747 22.309368 22.309369 22.309368s22.309368-8.923747 22.309368-22.309368V310.100218c0-13.385621-8.923747-22.309368-22.309368-22.309368H546.579521c-13.385621 0-22.309368 8.923747-22.309368 22.309368s8.923747 22.309368 22.309368 22.309368h178.474945L403.799564 640.278867l-133.856209-122.701525c-8.923747-6.69281-20.078431-6.69281-29.002179 0l-169.551198 145.010893C53.542484 613.507625 44.618736 564.427015 44.618736 513.115468 44.618736 254.326797 254.326797 44.618736 513.115468 44.618736s468.496732 209.708061 468.496732 468.496732-209.708061 468.496732-468.496732 468.496732c-149.472767 0-285.559913-69.159041-374.797385-187.398692-6.69281-8.923747-22.309368-11.154684-31.233116-4.461874-8.923747 6.69281-11.154684 22.309368-4.461873 31.233115C200.784314 950.379085 350.257081 1024 513.115468 1024c283.328976 0 513.115468-229.786492 513.115469-513.115468S794.213508 0 513.115468 0z" fill="#2c2c2c" p-id="2350"></path></svg>