<?xml version="1.0" standalone="no"?><!DOCTYPE svg PUBLIC "-//W3C//DTD SVG 1.1//EN" "http://www.w3.org/Graphics/SVG/1.1/DTD/svg11.dtd"><svg t="1722092745567" class="icon" viewBox="0 0 1024 1024" version="1.1" xmlns="http://www.w3.org/2000/svg" p-id="4409" xmlns:xlink="http://www.w3.org/1999/xlink" width="200" height="200"><path d="M479.015422 911.500649l-206.90326 104.585246a73.136536 73.136536 0 0 1-104.95093-78.10982l38.030999-213.412412a73.136536 73.136536 0 0 0-21.940961-66.261702L24.033031 509.176564a73.136536 73.136536 0 0 1 39.932549-125.794842l225.114258-31.44871a73.136536 73.136536 0 0 0 54.998675-39.054911l102.82997-200.394109a73.136536 73.136536 0 0 1 130.183034 0l102.82997 200.394109a73.136536 73.136536 0 0 0 54.998675 39.054911l225.114258 31.44871a73.136536 73.136536 0 0 1 39.932549 125.794842l-159.218239 149.198534a73.136536 73.136536 0 0 0-21.940961 66.188565l38.030999 213.412412a73.136536 73.136536 0 0 1-104.95093 78.10982l-206.90326-104.585246a73.136536 73.136536 0 0 0-65.969156 0z" fill="#FDBB1B" p-id="4410"></path></svg>