<?xml version="1.0" standalone="no"?><!DOCTYPE svg PUBLIC "-//W3C//DTD SVG 1.1//EN" "http://www.w3.org/Graphics/SVG/1.1/DTD/svg11.dtd"><svg t="1722092764087" class="icon" viewBox="0 0 1033 1024" version="1.1" xmlns="http://www.w3.org/2000/svg" p-id="5388" xmlns:xlink="http://www.w3.org/1999/xlink" width="201.7578125" height="200"><path d="M516.983467 890.88l-203.946667 107.2a106.666667 106.666667 0 0 1-154.752-112.426667L197.239467 658.56l-164.992-160.810667a106.666667 106.666667 0 0 1 59.114666-181.952l228.010667-33.130666 101.973333-206.592a106.666667 106.666667 0 0 1 191.296 0l101.973334 206.592 227.989333 33.130666a106.666667 106.666667 0 0 1 59.093333 181.952l-164.970666 160.810667 38.954666 227.072a106.666667 106.666667 0 0 1-154.773333 112.448L516.983467 890.88z m-39.701334-75.541333a85.333333 85.333333 0 0 1 79.402667 0l203.946667 107.221333a21.333333 21.333333 0 0 0 30.933333-22.506667l-38.933333-227.072a85.333333 85.333333 0 0 1 24.533333-75.52l164.992-160.832a21.333333 21.333333 0 0 0-11.84-36.373333l-227.989333-33.130667a85.333333 85.333333 0 0 1-64.256-46.677333l-101.973334-206.613333a21.333333 21.333333 0 0 0-38.250666 0l-101.973334 206.613333a85.333333 85.333333 0 0 1-64.234666 46.677333L103.650133 400.256a21.333333 21.333333 0 0 0-11.84 36.373333l164.992 160.832a85.333333 85.333333 0 0 1 24.533334 75.52L242.423467 900.053333a21.333333 21.333333 0 0 0 30.933333 22.506667l203.946667-107.221333z" fill="#2D2E35" p-id="5389"></path></svg>