<svg xmlns="http://www.w3.org/2000/svg" xmlns:xlink="http://www.w3.org/1999/xlink" width="800" zoomAndPan="magnify" viewBox="0 0 600 599.999999" height="800" preserveAspectRatio="xMidYMid meet" version="1.0"><defs><g/><clipPath id="29a023112c"><path d="M 125 232 L 176 232 L 176 299.839844 L 125 299.839844 Z M 125 232 " clip-rule="nonzero"/></clipPath><clipPath id="202374d2d9"><path d="M 32 232 L 83 232 L 83 299.839844 L 32 299.839844 Z M 32 232 " clip-rule="nonzero"/></clipPath></defs><path fill="#494edf" d="M 147.933594 227.925781 C 149.195312 230.78125 150.617188 232.976562 151.894531 236.042969 C 149.898438 238.304688 145.691406 243.109375 143.710938 245.425781 C 143.535156 245.425781 141.78125 241.742188 141.695312 241.691406 C 141.519531 240.972656 140.921875 239.429688 140.222656 237.816406 C 139.292969 235.640625 138.222656 233.273438 137.835938 232.484375 C 139.066406 231.800781 140.851562 230.589844 142.691406 229.765625 C 144.605469 228.90625 146.550781 228.449219 147.933594 227.925781 Z M 147.933594 227.925781 " fill-opacity="1" fill-rule="nonzero"/><path fill="#ddede7" d="M 150.863281 221.171875 C 152.054688 223.804688 151.914062 226.257812 147.933594 227.941406 C 145.253906 228.960938 140.34375 231.097656 137.835938 232.5 C 128.757812 212.019531 122.902344 199.851562 114.664062 182.453125 C 113.523438 179.914062 112.457031 176.808594 113.964844 174.441406 C 117.207031 169.339844 124.550781 176.175781 129.492188 182.683594 C 138.277344 193.589844 144.777344 209.003906 150.863281 221.171875 Z M 150.863281 221.171875 " fill-opacity="1" fill-rule="nonzero"/><g clip-path="url(#29a023112c)"><path fill="#f6cec1" d="M 151.878906 236.0625 C 161.640625 227.117188 167.007812 236.992188 161.433594 245.265625 C 164.375 244.617188 167.269531 245.8125 168.882812 247.984375 C 171.492188 251.511719 169.164062 254.648438 168.339844 257.226562 C 171.652344 255.964844 176.15625 259.367188 175.457031 263.699219 C 170.003906 279.550781 166.601562 280.722656 167.214844 299.1875 C 167.214844 299.1875 125.882812 298.980469 125.882812 298.980469 C 125.007812 279.761719 124.394531 265.800781 128.914062 251.195312 C 130.125 247.320312 136.59375 237.972656 140.1875 237.832031 C 141.484375 240.691406 142.9375 243.777344 143.691406 245.355469 C 146.320312 241.988281 149.160156 238.269531 151.878906 236.0625 Z M 151.878906 236.0625 " fill-opacity="1" fill-rule="nonzero"/></g><g clip-path="url(#202374d2d9)"><path fill="#f6cec1" d="M 63.445312 245.25 C 64.09375 244.164062 65.039062 241.25 66.390625 237.605469 C 69.984375 237.640625 77.152344 247.003906 78.449219 250.828125 C 83.355469 265.3125 83.113281 279.269531 82.761719 298.523438 C 82.761719 298.523438 41.460938 299.839844 41.460938 299.839844 C 41.199219 295.242188 41.148438 286.738281 39.585938 281.8125 C 38.519531 278.445312 32.960938 268.273438 32.261719 264.574219 C 31.453125 260.277344 35.851562 256.753906 39.203125 257.929688 C 38.324219 255.367188 35.90625 252.28125 38.429688 248.703125 C 39.988281 246.496094 42.828125 245.214844 45.808594 245.792969 C 43.355469 241.972656 40.917969 234.148438 47.789062 232.992188 C 50.261719 233.011719 52.734375 234.289062 55.046875 236.132812 C 58.203125 238.621094 61.113281 242.234375 63.445312 245.25 Z M 63.445312 245.25 " fill-opacity="1" fill-rule="nonzero"/></g><path fill="#ddede7" d="M 92.839844 190.046875 C 92.839844 190.046875 95.679688 190.941406 96.523438 191.539062 C 93.3125 199.902344 90.613281 210.476562 86.671875 218.492188 C 83.585938 223.242188 76.644531 225.015625 71.558594 223.066406 C 70.5625 225.222656 65.285156 241.496094 63.445312 245.441406 C 60.78125 241.742188 57.816406 238.375 55.03125 236.113281 C 59.042969 228.714844 63.199219 222.507812 64.375 219.59375 C 50.351562 209.335938 66.144531 192.292969 71.386719 181.402344 C 73.085938 182.191406 75.292969 183.070312 75.292969 183.070312 C 75.292969 183.070312 67.617188 203.09375 67.371094 203.796875 C 66.6875 205.757812 66.6875 207.304688 68.246094 207.953125 C 69.507812 208.476562 70.597656 208.160156 71.71875 206.375 C 74.453125 200.585938 79.183594 191.574219 82.535156 186.101562 C 83.425781 186.433594 84.496094 186.945312 85.40625 187.277344 C 83.882812 191.695312 78.1875 208.09375 78.097656 208.320312 C 77.765625 209.179688 77.167969 211.371094 78.992188 212.160156 C 81.007812 213.035156 81.917969 210.933594 82.304688 210.335938 C 82.707031 209.6875 92.839844 190.046875 92.839844 190.046875 Z M 92.839844 190.046875 " fill-opacity="1" fill-rule="nonzero"/><path fill="#1a1d3f" d="M 140.1875 254.402344 C 142.746094 248.84375 145.902344 244.164062 149.738281 239.972656 C 150.722656 238.917969 151.738281 237.921875 152.808594 236.972656 C 154.015625 235.796875 152.160156 233.921875 150.949219 235.113281 C 146.636719 238.917969 143.148438 243.585938 140.238281 248.511719 C 139.449219 250.230469 137.820312 252.195312 137.769531 254.070312 C 138.011719 255.15625 139.679688 255.421875 140.1875 254.402344 Z M 140.1875 254.402344 " fill-opacity="1" fill-rule="nonzero"/><path fill="#1a1d3f" d="M 69.542969 252.984375 C 66.878906 247.53125 63.304688 242.53125 59.078125 238.183594 C 57.871094 237.289062 55.574219 233.816406 54.03125 235.273438 C 53.59375 235.746094 53.453125 236.675781 54.03125 237.132812 C 56.660156 239.269531 58.972656 241.796875 61.078125 244.460938 C 62.988281 246.863281 65.652344 250.914062 67.265625 254.316406 C 68.089844 255.789062 70.386719 254.472656 69.542969 252.984375 Z M 69.542969 252.984375 " fill-opacity="1" fill-rule="nonzero"/><path fill="#1a1d3f" d="M 114.785156 175.652344 C 114.855469 175.5625 114.855469 175.511719 114.839844 175.527344 C 114.820312 175.5625 114.804688 175.617188 114.785156 175.652344 Z M 114.785156 175.652344 " fill-opacity="1" fill-rule="nonzero"/><path fill="#1a1d3f" d="M 114.542969 176.582031 C 114.578125 176.441406 114.578125 176.421875 114.558594 176.457031 C 114.558594 176.492188 114.542969 176.546875 114.542969 176.582031 Z M 114.542969 176.582031 " fill-opacity="1" fill-rule="nonzero"/><path fill="#1a1d3f" d="M 68.914062 206.8125 C 66.808594 206.445312 70.824219 199.183594 71.210938 197.394531 C 72.664062 193.609375 74.121094 189.820312 75.574219 186.015625 C 75.941406 184.699219 77.625 182.542969 75.660156 181.789062 C 74.121094 181.351562 72.664062 180.121094 71.070312 180.121094 C 70 180.367188 69.738281 182.035156 70.753906 182.523438 C 71.699219 182.964844 72.664062 183.382812 73.628906 183.769531 C 72.699219 186.171875 71.789062 188.558594 70.875 190.960938 C 69.421875 194.765625 67.949219 198.550781 66.511719 202.359375 C 65.792969 204.25 64.988281 206.566406 66.511719 208.285156 C 68.265625 210.425781 70.824219 208.40625 68.914062 206.8125 Z M 68.914062 206.8125 " fill-opacity="1" fill-rule="nonzero"/><path fill="#1a1d3f" d="M 77.34375 212.597656 C 79.097656 214.648438 81.5 212.511719 79.660156 211.019531 C 79.082031 210.863281 78.992188 210.285156 79.0625 209.757812 C 81.429688 202.339844 84.199219 195.027344 86.671875 187.628906 C 87.019531 186.433594 85.742188 185.960938 84.847656 185.644531 C 83.726562 185.171875 81.851562 184.015625 81.269531 185.75 C 80.886719 187.277344 82.761719 187.503906 83.761719 188.011719 C 83.355469 189.171875 82.953125 190.347656 82.550781 191.503906 C 81.113281 195.625 79.695312 199.746094 78.257812 203.847656 C 77.539062 206.636719 75.117188 209.984375 77.34375 212.597656 Z M 77.34375 212.597656 " fill-opacity="1" fill-rule="nonzero"/><path fill="#1a1d3f" d="M 97.1875 190.398438 C 95.941406 189.660156 94.539062 189.242188 93.191406 188.785156 C 91.5625 188.328125 90.859375 190.855469 92.488281 191.328125 C 93.3125 191.589844 94.121094 191.871094 94.910156 192.1875 C 93.945312 194.992188 92.980469 197.78125 92 200.570312 C 90.878906 203.8125 89.738281 207.058594 88.617188 210.285156 C 87.597656 213.089844 86.863281 216.125 85.003906 218.542969 C 82.480469 221.59375 78.257812 222.890625 74.398438 222.4375 C 73.226562 222.453125 72.035156 221.402344 70.910156 221.925781 C 70.296875 222.261719 70.070312 223.136719 70.4375 223.734375 C 75.46875 226.90625 83.234375 224.734375 86.96875 220.296875 C 89.070312 217.683594 89.964844 214.386719 91.070312 211.285156 C 93.191406 205.144531 95.347656 199.027344 97.449219 192.90625 C 97.800781 192.046875 98.132812 190.960938 97.1875 190.398438 Z M 97.1875 190.398438 " fill-opacity="1" fill-rule="nonzero"/><path fill="#1a1d3f" d="M 152.703125 222.613281 C 151.003906 217.4375 147.96875 212.703125 145.742188 207.722656 C 145.058594 206.339844 144.375 204.96875 143.710938 203.601562 C 143.464844 202.832031 142.464844 202.410156 141.78125 202.847656 C 141.152344 203.253906 140.976562 203.988281 141.308594 204.65625 C 142.394531 206.847656 143.480469 209.054688 144.570312 211.25 C 145.917969 214 147.285156 216.753906 148.617188 219.507812 C 150.300781 222.628906 151.476562 225.242188 147.269531 226.785156 C 146.269531 227.292969 146.496094 228.941406 147.582031 229.1875 C 150.652344 229.03125 153.492188 225.734375 152.703125 222.613281 Z M 152.703125 222.613281 " fill-opacity="1" fill-rule="nonzero"/><g fill="#000000" fill-opacity="1"><g transform="translate(176.448043, 270.240785)"><g><path d="M 43.78125 -61.109375 C 44 -61.328125 44.523438 -61.253906 45.359375 -60.890625 C 46.203125 -60.523438 47.019531 -60.050781 47.8125 -59.46875 C 48.90625 -58.8125 49.882812 -58.234375 50.75 -57.734375 C 51.476562 -57.515625 51.953125 -57.296875 52.171875 -57.078125 C 52.390625 -56.859375 52.40625 -56.566406 52.21875 -56.203125 C 52.039062 -55.835938 51.660156 -55.453125 51.078125 -55.046875 C 50.503906 -54.648438 49.597656 -54.128906 48.359375 -53.484375 C 45.816406 -51.953125 44.472656 -51.113281 44.328125 -50.96875 L 43.03125 -50.109375 L 44 -51.1875 C 44.507812 -51.769531 44.726562 -52.097656 44.65625 -52.171875 C 44.507812 -52.242188 43.929688 -51.84375 42.921875 -50.96875 C 41.753906 -49.882812 40.769531 -49.085938 39.96875 -48.578125 L 38.453125 -47.375 L 39.21875 -48.578125 C 42.625 -53.878906 44.144531 -57.507812 43.78125 -59.46875 C 43.632812 -60.414062 43.632812 -60.960938 43.78125 -61.109375 Z M 49.671875 -32.890625 C 49.890625 -33.765625 49.851562 -34.203125 49.5625 -34.203125 C 49.34375 -34.203125 47.851562 -33.457031 45.09375 -31.96875 C 42.332031 -30.476562 40.734375 -29.550781 40.296875 -29.1875 C 39.929688 -28.894531 39.351562 -28.640625 38.5625 -28.421875 C 38.050781 -28.421875 37.6875 -28.296875 37.46875 -28.046875 C 37.25 -27.796875 37.140625 -27.414062 37.140625 -26.90625 C 36.921875 -26.03125 36.847656 -25.519531 36.921875 -25.375 C 37.066406 -25.300781 38.804688 -26.0625 42.140625 -27.65625 C 45.484375 -29.257812 47.519531 -30.316406 48.25 -30.828125 C 48.832031 -31.335938 49.304688 -32.023438 49.671875 -32.890625 Z M 54.890625 -44.984375 C 55.617188 -46.285156 55.910156 -47.046875 55.765625 -47.265625 C 55.691406 -47.410156 54.148438 -46.6875 51.140625 -45.09375 C 48.128906 -43.5 45.097656 -41.847656 42.046875 -40.140625 C 38.992188 -38.429688 37.46875 -37.46875 37.46875 -37.25 C 37.46875 -37.175781 37.613281 -36.992188 37.90625 -36.703125 C 38.050781 -36.410156 38.195312 -36.015625 38.34375 -35.515625 C 38.414062 -35.003906 38.847656 -35.003906 39.640625 -35.515625 C 40.148438 -35.722656 41.171875 -36.265625 42.703125 -37.140625 C 45.742188 -38.953125 48.320312 -40.367188 50.4375 -41.390625 C 52.101562 -42.191406 53.15625 -42.769531 53.59375 -43.125 C 54.03125 -43.488281 54.460938 -44.109375 54.890625 -44.984375 Z M 78.75 -48.140625 C 78.820312 -48.210938 78.785156 -48.25 78.640625 -48.25 C 78.492188 -48.320312 78.382812 -48.359375 78.3125 -48.359375 C 78.09375 -48.210938 77.984375 -48.140625 77.984375 -48.140625 C 78.273438 -47.992188 78.53125 -47.992188 78.75 -48.140625 Z M 77.21875 -48.578125 C 77.289062 -48.648438 77.253906 -48.6875 77.109375 -48.6875 C 76.972656 -48.757812 76.832031 -48.796875 76.6875 -48.796875 C 76.539062 -48.648438 76.46875 -48.539062 76.46875 -48.46875 C 76.757812 -48.320312 77.007812 -48.359375 77.21875 -48.578125 Z M 44.765625 -79.953125 C 44.765625 -81.109375 44.835938 -81.6875 44.984375 -81.6875 C 45.203125 -81.6875 45.800781 -81.359375 46.78125 -80.703125 C 47.757812 -80.054688 48.613281 -79.441406 49.34375 -78.859375 C 50.21875 -78.054688 51.414062 -77.148438 52.9375 -76.140625 C 54.382812 -75.265625 55.109375 -74.679688 55.109375 -74.390625 C 55.109375 -74.097656 54.457031 -73.375 53.15625 -72.21875 C 51.914062 -71.125 51.332031 -70.46875 51.40625 -70.25 C 51.625 -69.957031 53.1875 -69.378906 56.09375 -68.515625 C 64.15625 -65.972656 71.269531 -63.503906 77.4375 -61.109375 C 83.613281 -58.710938 86.921875 -57.078125 87.359375 -56.203125 C 87.648438 -55.691406 87.796875 -53.347656 87.796875 -49.171875 C 87.796875 -45.003906 87.6875 -42.847656 87.46875 -42.703125 C 87.101562 -42.703125 85.320312 -43.460938 82.125 -44.984375 C 78.707031 -46.648438 76.4375 -47.71875 75.3125 -48.1875 C 74.1875 -48.664062 73.601562 -48.957031 73.5625 -49.0625 C 73.53125 -49.175781 73.914062 -49.160156 74.71875 -49.015625 L 75.59375 -48.90625 C 75.519531 -48.976562 75.335938 -49.050781 75.046875 -49.125 C 74.316406 -49.414062 73.769531 -49.488281 73.40625 -49.34375 C 73.050781 -49.34375 72.875 -49.414062 72.875 -49.5625 C 73.019531 -49.707031 72.875 -49.890625 72.4375 -50.109375 C 71.925781 -50.328125 70.835938 -50.578125 69.171875 -50.859375 C 66.984375 -51.367188 65.890625 -51.515625 65.890625 -51.296875 C 65.890625 -51.296875 65.960938 -51.1875 66.109375 -50.96875 C 66.546875 -50.539062 66.617188 -49.90625 66.328125 -49.0625 C 66.035156 -48.226562 65.164062 -46.429688 63.71875 -43.671875 C 61.832031 -39.898438 60.304688 -36.671875 59.140625 -33.984375 C 58.203125 -31.878906 57.675781 -30.585938 57.5625 -30.109375 C 57.457031 -29.640625 57.550781 -29.257812 57.84375 -28.96875 C 58.34375 -28.394531 58.535156 -27.976562 58.421875 -27.71875 C 58.316406 -27.46875 57.867188 -27.195312 57.078125 -26.90625 C 56.273438 -26.6875 54.75 -26.066406 52.5 -25.046875 C 50.25 -23.960938 49.234375 -23.53125 49.453125 -23.75 C 49.523438 -23.894531 50.140625 -24.253906 51.296875 -24.828125 C 51.660156 -25.046875 51.988281 -25.226562 52.28125 -25.375 C 52.570312 -25.519531 52.769531 -25.664062 52.875 -25.8125 C 52.988281 -25.957031 53.046875 -26.03125 53.046875 -26.03125 C 52.972656 -26.101562 51.570312 -25.46875 48.84375 -24.125 C 46.125 -22.78125 44.765625 -22.035156 44.765625 -21.890625 C 44.765625 -21.742188 45.851562 -21.203125 48.03125 -20.265625 L 51.40625 -18.953125 L 54.359375 -21.453125 C 56.390625 -23.421875 58.457031 -25.203125 60.5625 -26.796875 C 62.300781 -28.316406 63.425781 -29.367188 63.9375 -29.953125 C 64.445312 -30.535156 64.703125 -31.191406 64.703125 -31.921875 C 64.703125 -32.273438 64.789062 -32.453125 64.96875 -32.453125 C 65.15625 -32.453125 65.679688 -32.203125 66.546875 -31.703125 C 68.003906 -30.898438 68.914062 -30.242188 69.28125 -29.734375 C 69.707031 -29.148438 70.101562 -28.859375 70.46875 -28.859375 C 70.90625 -28.859375 71.773438 -28.257812 73.078125 -27.0625 C 74.390625 -25.863281 75.046875 -25.117188 75.046875 -24.828125 C 75.046875 -24.609375 74.789062 -24.359375 74.28125 -24.078125 C 74.28125 -23.929688 73.953125 -23.675781 73.296875 -23.3125 C 72.648438 -22.945312 71.765625 -22.398438 70.640625 -21.671875 C 69.515625 -20.953125 68.476562 -20.300781 67.53125 -19.71875 C 63.539062 -17.101562 61.289062 -15.539062 60.78125 -15.03125 C 60.34375 -14.664062 60.378906 -14.375 60.890625 -14.15625 C 61.109375 -14.007812 61.613281 -13.753906 62.40625 -13.390625 C 70.539062 -10.128906 77.113281 -7.226562 82.125 -4.6875 L 87.796875 -1.859375 L 87.796875 0.65625 C 87.796875 2.320312 87.519531 3.609375 86.96875 4.515625 C 86.425781 5.421875 86.191406 6.675781 86.265625 8.28125 C 86.410156 10.019531 86.335938 11.050781 86.046875 11.375 C 85.753906 11.707031 84.992188 11.65625 83.765625 11.21875 C 82.015625 10.632812 77.707031 8.671875 70.84375 5.328125 C 63.988281 1.992188 60.632812 0.21875 60.78125 0 C 60.851562 0 60.851562 0 60.78125 0 C 60.707031 0 60.632812 0 60.5625 0 C 60.269531 0.144531 59.6875 -0.0703125 58.8125 -0.65625 C 57.875 -1.238281 56.640625 -1.816406 55.109375 -2.390625 C 53.804688 -2.898438 53.082031 -3.226562 52.9375 -3.375 L 54.25 -3.265625 C 54.382812 -3.191406 54.523438 -3.15625 54.671875 -3.15625 C 56.054688 -2.863281 58.203125 -2.484375 61.109375 -2.015625 C 64.015625 -1.546875 65.71875 -1.3125 66.21875 -1.3125 C 67.164062 -1.3125 67.128906 -1.632812 66.109375 -2.28125 C 65.679688 -2.5 65.101562 -2.753906 64.375 -3.046875 C 62.707031 -3.628906 58.675781 -5.570312 52.28125 -8.875 C 45.894531 -12.175781 40.992188 -14.847656 37.578125 -16.890625 C 36.703125 -17.390625 36.082031 -17.601562 35.71875 -17.53125 C 35.363281 -17.457031 35.1875 -17.132812 35.1875 -16.5625 C 35.1875 -15.90625 34.859375 -13.941406 34.203125 -10.671875 C 33.617188 -7.328125 33.328125 -5.65625 33.328125 -5.65625 C 33.398438 -5.59375 34.6875 -6.300781 37.1875 -7.78125 C 39.695312 -9.269531 41.316406 -10.304688 42.046875 -10.890625 C 44.078125 -12.273438 43.859375 -11.550781 41.390625 -8.71875 C 39.503906 -6.394531 38.632812 -5.269531 38.78125 -5.34375 C 38.78125 -5.34375 39.359375 -5.847656 40.515625 -6.859375 C 41.898438 -8.097656 42.628906 -8.679688 42.703125 -8.609375 C 42.703125 -8.460938 42.375 -7.988281 41.71875 -7.1875 C 41.207031 -6.601562 40.242188 -5.113281 38.828125 -2.71875 C 37.410156 -0.320312 36.195312 1.925781 35.1875 4.03125 C 33.875 6.644531 33 8.023438 32.5625 8.171875 C 32.195312 8.316406 30.523438 8.171875 27.546875 7.734375 C 24.578125 7.296875 22.945312 6.929688 22.65625 6.640625 C 22.289062 6.347656 21.851562 5.691406 21.34375 4.671875 C 20.84375 3.660156 20.660156 3.082031 20.796875 2.9375 C 20.941406 2.71875 21.378906 2.535156 22.109375 2.390625 C 22.910156 2.242188 23.382812 1.882812 23.53125 1.3125 C 23.675781 0.582031 24.035156 -1.5625 24.609375 -5.125 C 25.921875 -11.945312 26.832031 -16.664062 27.34375 -19.28125 C 29.664062 -30.96875 30.679688 -36.921875 30.390625 -37.140625 C 30.316406 -37.285156 29.953125 -37.539062 29.296875 -37.90625 C 28.710938 -38.125 28.242188 -38.847656 27.890625 -40.078125 C 27.453125 -41.460938 27.453125 -42.15625 27.890625 -42.15625 C 28.035156 -42.15625 28.210938 -42.082031 28.421875 -41.9375 C 28.929688 -41.71875 29.984375 -41.96875 31.578125 -42.6875 C 33.179688 -43.414062 38.195312 -45.816406 46.625 -49.890625 L 59.03125 -56.09375 L 60.234375 -55.328125 C 61.109375 -54.742188 61.796875 -54.164062 62.296875 -53.59375 C 62.953125 -52.71875 63.644531 -52.207031 64.375 -52.0625 C 64.519531 -51.988281 64.59375 -51.988281 64.59375 -52.0625 C 64.59375 -52.132812 64.554688 -52.171875 64.484375 -52.171875 C 64.335938 -52.390625 64.300781 -52.515625 64.375 -52.546875 C 64.445312 -52.585938 64.59375 -52.570312 64.8125 -52.5 C 65.25 -52.351562 66.484375 -52.207031 68.515625 -52.0625 C 69.097656 -52.0625 70.054688 -51.988281 71.390625 -51.84375 C 72.734375 -51.695312 73.625 -51.625 74.0625 -51.625 C 75.300781 -51.476562 75.921875 -51.476562 75.921875 -51.625 C 75.992188 -51.625 75.957031 -51.734375 75.8125 -51.953125 C 75.375 -52.390625 73.882812 -53.046875 71.34375 -53.921875 C 67.925781 -55.222656 64.875 -56.382812 62.1875 -57.40625 C 58.5625 -58.707031 56.457031 -59.46875 55.875 -59.6875 C 55.363281 -59.832031 53.476562 -60.5625 50.21875 -61.875 L 45.53125 -63.71875 L 42.15625 -60.125 C 40.84375 -58.820312 36.445312 -54.101562 28.96875 -45.96875 C 23.8125 -40.445312 20.507812 -37.015625 19.0625 -35.671875 C 17.613281 -34.328125 16.671875 -33.835938 16.234375 -34.203125 C 15.941406 -34.492188 15.6875 -34.640625 15.46875 -34.640625 C 15.101562 -34.492188 14.175781 -34.601562 12.6875 -34.96875 C 11.195312 -35.332031 10.34375 -35.65625 10.125 -35.9375 C 9.757812 -36.226562 9.507812 -36.921875 9.375 -38.015625 C 9.226562 -38.742188 9.242188 -39.359375 9.421875 -39.859375 C 9.597656 -40.367188 10.195312 -41.390625 11.21875 -42.921875 C 12.738281 -45.242188 13.789062 -47.128906 14.375 -48.578125 C 15.101562 -50.097656 15.503906 -50.929688 15.578125 -51.078125 L 15.578125 -48.6875 C 15.359375 -46.945312 15.359375 -46.078125 15.578125 -46.078125 C 16.085938 -46.078125 21.929688 -52.359375 33.109375 -64.921875 C 38.921875 -71.597656 42.316406 -75.550781 43.296875 -76.78125 C 44.273438 -78.019531 44.765625 -79.078125 44.765625 -79.953125 Z M 44.765625 -79.953125 "/></g></g></g><g fill="#000000" fill-opacity="1"><g transform="translate(274.347653, 270.240785)"><g><path d="M 44.984375 -78.859375 C 44.765625 -80.023438 44.765625 -80.609375 44.984375 -80.609375 C 45.273438 -80.609375 46.203125 -80.113281 47.765625 -79.125 C 49.328125 -78.144531 50.144531 -77.546875 50.21875 -77.328125 C 50.4375 -76.972656 51.453125 -76.25 53.265625 -75.15625 C 54.859375 -74.207031 55.816406 -73.476562 56.140625 -72.96875 C 56.472656 -72.46875 56.347656 -71.851562 55.765625 -71.125 C 55.179688 -70.394531 54.363281 -69.210938 53.3125 -67.578125 C 52.257812 -65.953125 51.734375 -65.03125 51.734375 -64.8125 C 51.734375 -64.8125 52.023438 -64.847656 52.609375 -64.921875 C 53.191406 -64.992188 53.953125 -65.175781 54.890625 -65.46875 C 55.472656 -65.613281 56.632812 -65.9375 58.375 -66.4375 C 60.125 -66.945312 61.21875 -67.238281 61.65625 -67.3125 L 65.359375 -68.40625 L 68.078125 -66.984375 C 69.816406 -66.046875 71.160156 -65.25 72.109375 -64.59375 C 72.898438 -63.789062 73.914062 -63.023438 75.15625 -62.296875 C 76.457031 -61.285156 77.328125 -60.523438 77.765625 -60.015625 C 78.203125 -59.503906 78.253906 -59.117188 77.921875 -58.859375 C 77.597656 -58.609375 76.785156 -58.34375 75.484375 -58.0625 C 73.816406 -57.695312 71.457031 -57.039062 68.40625 -56.09375 C 67.675781 -55.800781 66.945312 -55.546875 66.21875 -55.328125 C 65.5 -55.109375 64.9375 -54.941406 64.53125 -54.828125 C 64.132812 -54.722656 63.9375 -54.671875 63.9375 -54.671875 C 63.9375 -54.816406 64.441406 -55.144531 65.453125 -55.65625 C 66.472656 -56.164062 66.984375 -56.492188 66.984375 -56.640625 C 66.984375 -56.785156 66.382812 -56.582031 65.1875 -56.03125 C 63.988281 -55.488281 62.625 -54.816406 61.09375 -54.015625 C 59.570312 -53.222656 58.453125 -52.570312 57.734375 -52.0625 C 57.441406 -51.914062 57.1875 -51.769531 56.96875 -51.625 C 56.75 -51.476562 56.582031 -51.382812 56.46875 -51.34375 C 56.363281 -51.3125 56.3125 -51.296875 56.3125 -51.296875 C 56.3125 -51.515625 57.363281 -52.566406 59.46875 -54.453125 C 60.050781 -55.035156 60.5625 -55.582031 61 -56.09375 C 61.4375 -56.601562 61.78125 -56.984375 62.03125 -57.234375 C 62.28125 -57.492188 62.367188 -57.660156 62.296875 -57.734375 C 62.078125 -57.953125 58.882812 -57.003906 52.71875 -54.890625 L 43.453125 -51.734375 L 40.625 -47.484375 C 39.894531 -46.328125 38.878906 -44.734375 37.578125 -42.703125 C 33.585938 -36.304688 31.335938 -32.546875 30.828125 -31.421875 C 30.316406 -30.296875 30.535156 -29.515625 31.484375 -29.078125 C 31.773438 -28.929688 31.988281 -28.820312 32.125 -28.75 C 32.632812 -28.457031 32.960938 -28.203125 33.109375 -27.984375 C 33.253906 -27.773438 33.289062 -27.378906 33.21875 -26.796875 C 33.070312 -26.210938 32.851562 -23.707031 32.5625 -19.28125 C 32.269531 -15.070312 32.019531 -11.515625 31.8125 -8.609375 C 31.59375 -5.628906 31.554688 -4.066406 31.703125 -3.921875 C 31.847656 -3.410156 33.695312 -3.484375 37.25 -4.140625 C 39.0625 -4.503906 41.675781 -5.117188 45.09375 -5.984375 C 48.507812 -6.859375 50.328125 -7.441406 50.546875 -7.734375 C 50.753906 -7.878906 51.003906 -10.039062 51.296875 -14.21875 C 51.585938 -18.394531 51.660156 -20.550781 51.515625 -20.6875 C 51.367188 -20.832031 50.898438 -20.617188 50.109375 -20.046875 C 49.523438 -19.679688 49.03125 -19.460938 48.625 -19.390625 C 48.226562 -19.316406 47.378906 -19.390625 46.078125 -19.609375 L 43.140625 -19.9375 L 40.078125 -22.984375 C 37.035156 -25.960938 35.726562 -27.703125 36.15625 -28.203125 C 36.375 -28.347656 36.882812 -28.28125 37.6875 -28 C 38.488281 -27.78125 40.269531 -28.140625 43.03125 -29.078125 C 45.5 -29.878906 47.75 -30.71875 49.78125 -31.59375 L 52.28125 -32.453125 L 52.5 -36.484375 C 52.644531 -38.734375 52.753906 -41.894531 52.828125 -45.96875 L 52.828125 -51.40625 L 54.140625 -50.859375 C 55.078125 -50.578125 56.09375 -49.960938 57.1875 -49.015625 C 58.125 -48.359375 59.394531 -47.523438 61 -46.515625 C 62.375 -45.640625 63.171875 -44.945312 63.390625 -44.4375 C 63.460938 -43.851562 63.390625 -42.472656 63.171875 -40.296875 C 62.878906 -37.972656 62.804688 -36.738281 62.953125 -36.59375 C 63.097656 -36.445312 64.007812 -36.664062 65.6875 -37.25 L 68.1875 -38.234375 L 69.921875 -37.359375 C 71.085938 -36.773438 72.035156 -36.160156 72.765625 -35.515625 C 73.847656 -34.566406 74.753906 -33.835938 75.484375 -33.328125 C 77.222656 -32.097656 78.09375 -31.265625 78.09375 -30.828125 C 78.09375 -30.609375 77.550781 -30.390625 76.46875 -30.171875 C 72.832031 -29.585938 69.414062 -28.5 66.21875 -26.90625 C 64.476562 -26.03125 63.609375 -25.738281 63.609375 -26.03125 C 63.679688 -26.175781 64.265625 -26.539062 65.359375 -27.125 L 66.546875 -27.890625 L 66.4375 -27.890625 C 63.75 -27.015625 62.332031 -26.429688 62.1875 -26.140625 C 62.039062 -25.992188 61.84375 -23.453125 61.59375 -18.515625 C 61.34375 -13.578125 61.253906 -11.070312 61.328125 -11 C 61.472656 -10.925781 62.851562 -11.179688 65.46875 -11.765625 C 67.351562 -12.273438 70.035156 -12.851562 73.515625 -13.5 C 76.054688 -14.007812 77.800781 -14.410156 78.75 -14.703125 C 79.625 -14.992188 80.566406 -14.847656 81.578125 -14.265625 C 82.597656 -13.679688 84.414062 -12.335938 87.03125 -10.234375 C 91.53125 -6.609375 93.78125 -4.25 93.78125 -3.15625 C 93.78125 -2.71875 93.5625 -2.441406 93.125 -2.328125 C 92.6875 -2.222656 91.269531 -1.957031 88.875 -1.53125 C 83.71875 -0.582031 77.945312 1.015625 71.5625 3.265625 C 68.363281 4.359375 66.835938 4.796875 66.984375 4.578125 C 67.054688 4.429688 67.710938 4.140625 68.953125 3.703125 C 69.453125 3.410156 69.863281 3.171875 70.1875 2.984375 C 70.519531 2.804688 70.6875 2.71875 70.6875 2.71875 C 70.613281 2.570312 69.613281 2.878906 67.6875 3.640625 C 65.769531 4.410156 64.117188 5.117188 62.734375 5.765625 C 62.296875 6.054688 61.878906 6.289062 61.484375 6.46875 C 61.085938 6.65625 60.757812 6.800781 60.5 6.90625 C 60.25 7.019531 60.125 7.039062 60.125 6.96875 C 60.125 6.894531 62.226562 5.296875 66.4375 2.171875 C 70.65625 -0.941406 72.765625 -2.609375 72.765625 -2.828125 C 72.765625 -3.046875 71.144531 -2.753906 67.90625 -1.953125 C 64.675781 -1.160156 60.898438 -0.113281 56.578125 1.1875 C 52.265625 2.5 48.65625 3.703125 45.75 4.796875 C 43.0625 5.804688 41.15625 6.1875 40.03125 5.9375 C 38.90625 5.6875 37.179688 4.503906 34.859375 2.390625 C 32.960938 0.722656 31.945312 -0.109375 31.8125 -0.109375 C 31.59375 -0.109375 31.410156 0.6875 31.265625 2.28125 C 31.117188 3.882812 31.046875 5.554688 31.046875 7.296875 C 31.046875 8.960938 30.914062 9.882812 30.65625 10.0625 C 30.40625 10.25 29.519531 10.050781 28 9.46875 C 26.613281 8.96875 25.8125 8.789062 25.59375 8.9375 C 25.300781 9.082031 25.007812 8.972656 24.71875 8.609375 C 24.363281 8.171875 23.96875 7.953125 23.53125 7.953125 C 23.238281 8.023438 22.984375 7.914062 22.765625 7.625 C 22.546875 7.332031 22.289062 6.75 22 5.875 C 21.707031 4.71875 21.578125 3.578125 21.609375 2.453125 C 21.648438 1.328125 21.925781 -2.101562 22.4375 -7.84375 C 23.019531 -15.757812 23.3125 -19.753906 23.3125 -19.828125 C 23.3125 -20.046875 22.472656 -18.882812 20.796875 -16.34375 C 19.273438 -14.019531 17.585938 -11.691406 15.734375 -9.359375 C 13.890625 -7.035156 12.75 -5.769531 12.3125 -5.5625 C 11.945312 -5.488281 11.65625 -5.554688 11.4375 -5.765625 C 11.363281 -6.054688 10.742188 -6.273438 9.578125 -6.421875 C 8.492188 -6.640625 7.660156 -6.859375 7.078125 -7.078125 C 6.785156 -7.222656 6.347656 -7.476562 5.765625 -7.84375 C 5.335938 -7.988281 4.976562 -8.601562 4.6875 -9.6875 C 4.46875 -10.488281 4.394531 -11.144531 4.46875 -11.65625 C 4.539062 -12.164062 4.90625 -13.253906 5.5625 -14.921875 C 6.351562 -17.171875 6.96875 -19.457031 7.40625 -21.78125 C 8.5 -27.8125 9.257812 -31.046875 9.6875 -31.484375 C 9.757812 -31.484375 9.796875 -31.335938 9.796875 -31.046875 C 9.796875 -30.753906 9.796875 -30.296875 9.796875 -29.671875 C 9.796875 -29.054688 9.796875 -28.40625 9.796875 -27.71875 C 9.796875 -27.03125 9.757812 -26.210938 9.6875 -25.265625 C 9.613281 -23.742188 9.578125 -22.582031 9.578125 -21.78125 C 9.578125 -20.988281 9.59375 -20.375 9.625 -19.9375 C 9.664062 -19.5 9.703125 -19.222656 9.734375 -19.109375 C 9.773438 -19.003906 9.90625 -18.953125 10.125 -18.953125 C 10.488281 -18.953125 10.671875 -19.097656 10.671875 -19.390625 C 10.671875 -19.460938 10.6875 -19.679688 10.71875 -20.046875 C 10.757812 -20.410156 10.78125 -20.878906 10.78125 -21.453125 C 10.78125 -22.035156 10.78125 -22.582031 10.78125 -23.09375 L 10.78125 -26.359375 L 11.109375 -23.640625 C 11.253906 -21.535156 11.507812 -20.484375 11.875 -20.484375 C 12.019531 -20.484375 12.203125 -20.660156 12.421875 -21.015625 C 13.648438 -22.765625 16.425781 -27.34375 20.75 -34.75 C 25.070312 -42.15625 27.160156 -45.894531 27.015625 -45.96875 C 26.867188 -46.113281 26.359375 -46.039062 25.484375 -45.75 C 24.546875 -45.382812 23.273438 -45.421875 21.671875 -45.859375 C 20.078125 -46.367188 18.769531 -46.875 17.75 -47.375 C 16.664062 -48.101562 15.125 -49.265625 13.125 -50.859375 C 11.125 -52.460938 10.085938 -53.410156 10.015625 -53.703125 C 9.941406 -53.847656 10.125 -53.957031 10.5625 -54.03125 C 10.851562 -54.101562 11.398438 -54.140625 12.203125 -54.140625 C 13.796875 -54.140625 15.425781 -54.390625 17.09375 -54.890625 C 18.1875 -55.179688 21.238281 -56.019531 26.25 -57.40625 C 30.601562 -58.632812 33.21875 -59.46875 34.09375 -59.90625 C 34.601562 -60.125 35.144531 -60.59375 35.71875 -61.3125 C 36.300781 -62.039062 37.210938 -63.53125 38.453125 -65.78125 C 40.335938 -69.050781 41.96875 -71.847656 43.34375 -74.171875 C 44.21875 -75.484375 44.742188 -76.375 44.921875 -76.84375 C 45.109375 -77.3125 45.128906 -77.984375 44.984375 -78.859375 Z M 44.984375 -78.859375 "/></g></g></g><g fill="#000000" fill-opacity="1"><g transform="translate(372.356167, 270.240785)"><g><path d="M 25.8125 -60.015625 C 25.007812 -61.609375 24.609375 -62.625 24.609375 -63.0625 C 24.609375 -63.5 25.664062 -63.132812 27.78125 -61.96875 C 29.8125 -60.882812 31.425781 -59.867188 32.625 -58.921875 C 33.820312 -57.984375 35 -57.222656 36.15625 -56.640625 C 37.101562 -56.128906 37.847656 -55.546875 38.390625 -54.890625 C 38.941406 -54.242188 39.144531 -53.738281 39 -53.375 C 38.707031 -52.644531 37.90625 -44.800781 36.59375 -29.84375 C 35.945312 -21.925781 35.726562 -17.929688 35.9375 -17.859375 C 36.445312 -17.640625 37.207031 -17.113281 38.21875 -16.28125 C 39.238281 -15.445312 39.894531 -14.773438 40.1875 -14.265625 C 40.625 -13.535156 41.570312 -12.738281 43.03125 -11.875 C 44.550781 -11.144531 45.3125 -10.597656 45.3125 -10.234375 C 45.3125 -9.867188 44.691406 -9.363281 43.453125 -8.71875 C 42.222656 -8.0625 40.226562 -6.71875 37.46875 -4.6875 C 34.707031 -2.582031 33.21875 -1.707031 33 -2.0625 C 32.78125 -2.425781 32.523438 -2.390625 32.234375 -1.953125 C 32.023438 -1.597656 31.59375 -1.019531 30.9375 -0.21875 C 30.425781 0.363281 30.171875 0.507812 30.171875 0.21875 C 30.171875 0.0703125 30.28125 -0.363281 30.5 -1.09375 C 30.71875 -1.457031 30.644531 -1.640625 30.28125 -1.640625 C 29.695312 -1.640625 26.972656 0.140625 22.109375 3.703125 C 20.296875 4.941406 19.257812 5.5625 19 5.5625 C 18.75 5.5625 18.296875 5.34375 17.640625 4.90625 C 17.140625 4.46875 16.597656 4.285156 16.015625 4.359375 C 15.429688 4.503906 14.957031 4.359375 14.59375 3.921875 C 14.300781 3.484375 13.863281 3.265625 13.28125 3.265625 C 12.851562 3.265625 12.054688 2.9375 10.890625 2.28125 C 10.160156 1.851562 9.632812 1.382812 9.3125 0.875 C 8.988281 0.363281 8.609375 -0.4375 8.171875 -1.53125 C 7.367188 -3.269531 6.96875 -4.210938 6.96875 -4.359375 C 6.96875 -4.503906 7.441406 -4.578125 8.390625 -4.578125 C 9.546875 -4.578125 14.007812 -6.828125 21.78125 -11.328125 C 21.925781 -11.398438 22.109375 -11.507812 22.328125 -11.65625 C 23.128906 -12.09375 23.617188 -12.707031 23.796875 -13.5 C 23.984375 -14.300781 24.253906 -16.878906 24.609375 -21.234375 C 24.679688 -22.328125 24.71875 -23.203125 24.71875 -23.859375 C 25.226562 -29.015625 25.300781 -31.59375 24.9375 -31.59375 C 24.863281 -31.59375 24.753906 -31.445312 24.609375 -31.15625 C 24.328125 -30.644531 23.945312 -30.023438 23.46875 -29.296875 C 23 -28.566406 22.5625 -27.945312 22.15625 -27.4375 C 21.757812 -26.9375 21.5625 -26.722656 21.5625 -26.796875 C 21.5625 -26.796875 21.816406 -27.410156 22.328125 -28.640625 C 22.835938 -29.878906 23.019531 -30.570312 22.875 -30.71875 C 22.800781 -30.789062 21.53125 -29.921875 19.0625 -28.109375 C 17.320312 -26.867188 16.210938 -26.140625 15.734375 -25.921875 C 15.265625 -25.703125 14.882812 -25.738281 14.59375 -26.03125 C 14.15625 -26.394531 13.664062 -26.578125 13.125 -26.578125 C 12.582031 -26.578125 12.128906 -26.757812 11.765625 -27.125 C 11.328125 -27.488281 10.890625 -27.671875 10.453125 -27.671875 C 9.941406 -27.671875 9.179688 -27.921875 8.171875 -28.421875 C 7.148438 -28.929688 6.382812 -29.878906 5.875 -31.265625 C 5.375 -32.492188 5.050781 -33.726562 4.90625 -34.96875 L 4.578125 -36.703125 L 5.984375 -35.515625 C 6.929688 -34.640625 7.585938 -34.347656 7.953125 -34.640625 C 8.242188 -34.859375 8.929688 -35.148438 10.015625 -35.515625 C 10.960938 -35.867188 13.628906 -37.0625 18.015625 -39.09375 C 22.410156 -41.132812 24.863281 -42.335938 25.375 -42.703125 C 25.738281 -42.921875 25.992188 -43.460938 26.140625 -44.328125 C 26.285156 -45.203125 26.429688 -47.238281 26.578125 -50.4375 L 27.015625 -57.625 Z M 78.421875 -36.59375 C 79.441406 -37.46875 79.878906 -38.015625 79.734375 -38.234375 C 79.441406 -38.453125 76.644531 -36.09375 71.34375 -31.15625 C 69.457031 -29.332031 68.40625 -28.421875 68.1875 -28.421875 C 67.96875 -28.421875 68.4375 -29.296875 69.59375 -31.046875 C 70.6875 -32.785156 71.523438 -34.203125 72.109375 -35.296875 L 72.875 -36.921875 L 72 -36.484375 C 70.90625 -35.910156 69.085938 -34.84375 66.546875 -33.28125 C 64.003906 -31.71875 62.695312 -30.898438 62.625 -30.828125 C 62.40625 -30.316406 62.097656 -27.046875 61.703125 -21.015625 C 61.304688 -14.992188 61.179688 -10.929688 61.328125 -8.828125 C 61.328125 -8.316406 62.015625 -8.171875 63.390625 -8.390625 C 64.335938 -8.535156 66.335938 -8.894531 69.390625 -9.46875 C 76.503906 -11 80.207031 -12.09375 80.5 -12.75 C 80.707031 -13.175781 81.140625 -15.097656 81.796875 -18.515625 C 82.453125 -21.929688 82.925781 -24.617188 83.21875 -26.578125 C 83.363281 -28.679688 83.488281 -30.984375 83.59375 -33.484375 C 83.707031 -35.992188 83.65625 -37.320312 83.4375 -37.46875 C 83.289062 -37.6875 81.289062 -36.523438 77.4375 -33.984375 C 73.59375 -31.296875 71.597656 -29.953125 71.453125 -29.953125 C 71.378906 -29.953125 71.664062 -30.28125 72.3125 -30.9375 C 72.96875 -31.59375 73.84375 -32.425781 74.9375 -33.4375 C 76.03125 -34.457031 77.191406 -35.507812 78.421875 -36.59375 Z M 50.859375 -75.375 L 53.046875 -75.15625 C 54.273438 -75.007812 55.4375 -74.644531 56.53125 -74.0625 C 57.550781 -73.550781 58.238281 -73.296875 58.59375 -73.296875 C 58.882812 -73.296875 59.25 -72.71875 59.6875 -71.5625 C 60.050781 -70.832031 60.378906 -70.359375 60.671875 -70.140625 C 60.960938 -69.921875 61.363281 -69.738281 61.875 -69.59375 C 62.957031 -69.457031 64.097656 -69.078125 65.296875 -68.453125 C 66.492188 -67.835938 67.203125 -67.3125 67.421875 -66.875 C 67.640625 -66.363281 67.457031 -64.585938 66.875 -61.546875 C 66.21875 -58.421875 65.617188 -54.878906 65.078125 -50.921875 C 64.535156 -46.960938 64.335938 -44.890625 64.484375 -44.703125 C 64.628906 -44.523438 66.660156 -45.671875 70.578125 -48.140625 C 74.503906 -50.609375 76.753906 -51.84375 77.328125 -51.84375 C 77.765625 -51.84375 78.984375 -51.207031 80.984375 -49.9375 C 82.984375 -48.664062 83.984375 -47.882812 83.984375 -47.59375 C 83.984375 -47.226562 84.378906 -46.644531 85.171875 -45.84375 C 85.972656 -45.050781 86.847656 -44.4375 87.796875 -44 C 90.117188 -42.625 90.226562 -41.390625 88.125 -40.296875 C 87.46875 -39.929688 86.992188 -39.625 86.703125 -39.375 C 86.410156 -39.125 86.242188 -38.597656 86.203125 -37.796875 C 86.171875 -36.992188 86.265625 -36.101562 86.484375 -35.125 C 86.703125 -34.144531 87.101562 -32.492188 87.6875 -30.171875 C 88.40625 -27.191406 89.019531 -24.320312 89.53125 -21.5625 C 89.894531 -18.945312 90.1875 -17.53125 90.40625 -17.3125 C 90.625 -17.03125 90.660156 -17.46875 90.515625 -18.625 C 90.148438 -21.894531 89.171875 -26.648438 87.578125 -32.890625 C 86.921875 -35.140625 86.59375 -36.664062 86.59375 -37.46875 C 86.664062 -38.269531 86.773438 -38.414062 86.921875 -37.90625 C 87.140625 -36.957031 87.609375 -35.359375 88.328125 -33.109375 C 90.222656 -27.085938 91.710938 -21.316406 92.796875 -15.796875 C 93.597656 -12.085938 94.050781 -9.613281 94.15625 -8.375 C 94.269531 -7.144531 94.109375 -6.171875 93.671875 -5.453125 C 93.160156 -4.285156 91.707031 -3.320312 89.3125 -2.5625 C 86.914062 -1.800781 81.035156 -0.363281 71.671875 1.75 L 64.59375 3.265625 L 62.078125 2.71875 C 56.273438 1.34375 52.898438 0.179688 51.953125 -0.765625 C 50.359375 -2.210938 49.453125 -5.257812 49.234375 -9.90625 C 49.085938 -12.375 49.160156 -16.566406 49.453125 -22.484375 C 49.742188 -28.410156 50.144531 -33.734375 50.65625 -38.453125 C 51.082031 -42.878906 51.566406 -48.59375 52.109375 -55.59375 C 52.660156 -62.601562 52.9375 -66.800781 52.9375 -68.1875 C 52.9375 -69.5625 52.679688 -70.578125 52.171875 -71.234375 C 51.734375 -71.890625 51.40625 -72.757812 51.1875 -73.84375 Z M 50.859375 -75.375 "/></g></g></g><g fill="#000000" fill-opacity="1"><g transform="translate(470.364682, 270.240785)"><g><path d="M 57.40625 -77.4375 C 57.550781 -77.726562 58.078125 -77.800781 58.984375 -77.65625 C 59.890625 -77.507812 60.976562 -77.109375 62.25 -76.453125 C 63.519531 -75.804688 64.445312 -75.191406 65.03125 -74.609375 C 65.96875 -73.734375 66.582031 -73.296875 66.875 -73.296875 C 67.238281 -73.296875 67.910156 -73.039062 68.890625 -72.53125 C 69.867188 -72.03125 70.503906 -71.5625 70.796875 -71.125 C 71.160156 -70.6875 70.960938 -70.125 70.203125 -69.4375 C 69.441406 -68.75 67.71875 -67.53125 65.03125 -65.78125 C 62.488281 -64.039062 60.269531 -62.410156 58.375 -60.890625 C 56.78125 -59.648438 55.835938 -59.03125 55.546875 -59.03125 C 55.035156 -59.03125 53.835938 -58.195312 51.953125 -56.53125 C 51.222656 -55.875 50.875 -55.65625 50.90625 -55.875 C 50.945312 -56.09375 51.40625 -56.960938 52.28125 -58.484375 C 53.375 -60.304688 54.753906 -62.90625 56.421875 -66.28125 C 58.085938 -69.65625 58.992188 -71.632812 59.140625 -72.21875 C 59.285156 -72.875 59.03125 -73.816406 58.375 -75.046875 C 57.726562 -76.210938 57.40625 -77.007812 57.40625 -77.4375 Z M 27.78125 -29.734375 C 27.851562 -29.953125 27.890625 -30.1875 27.890625 -30.4375 C 27.890625 -30.695312 27.890625 -30.878906 27.890625 -30.984375 C 27.890625 -31.097656 27.851562 -31.15625 27.78125 -31.15625 C 27.414062 -31.082031 26.160156 -30.425781 24.015625 -29.1875 C 21.867188 -27.957031 20.796875 -27.234375 20.796875 -27.015625 C 20.796875 -26.867188 21.757812 -25.976562 23.6875 -24.34375 C 25.613281 -22.707031 26.757812 -21.816406 27.125 -21.671875 C 27.414062 -21.597656 27.5625 -22.6875 27.5625 -24.9375 C 27.5625 -27.050781 27.632812 -28.648438 27.78125 -29.734375 Z M 24.40625 -40.40625 C 22.875 -42.289062 21.890625 -43.453125 21.453125 -43.890625 L 19.9375 -45.53125 L 19.828125 -43.453125 C 19.679688 -42.296875 19.570312 -41.023438 19.5 -39.640625 C 19.425781 -38.265625 19.40625 -37.101562 19.4375 -36.15625 C 19.476562 -35.21875 19.570312 -34.75 19.71875 -34.75 C 20.15625 -34.75 21.316406 -35.238281 23.203125 -36.21875 C 25.085938 -37.195312 26.03125 -37.757812 26.03125 -37.90625 C 26.03125 -38.269531 25.488281 -39.101562 24.40625 -40.40625 Z M 71.5625 -49.78125 C 72.65625 -51.375 73.128906 -52.242188 72.984375 -52.390625 C 72.984375 -52.460938 72 -51.882812 70.03125 -50.65625 C 69.8125 -50.582031 66.582031 -48.546875 60.34375 -44.546875 C 55.695312 -41.710938 53.117188 -40.113281 52.609375 -39.75 C 51.734375 -39.03125 52.421875 -38.304688 54.671875 -37.578125 C 55.910156 -37.140625 56.640625 -36.554688 56.859375 -35.828125 L 57.1875 -34.859375 L 61.875 -38.125 C 64.914062 -40.300781 66.691406 -41.585938 67.203125 -41.984375 C 67.710938 -42.390625 67.96875 -43.207031 67.96875 -44.4375 C 67.96875 -45.675781 67.859375 -46.582031 67.640625 -47.15625 C 67.492188 -47.664062 67.53125 -47.921875 67.75 -47.921875 C 67.96875 -47.921875 68.546875 -47.738281 69.484375 -47.375 C 69.773438 -47.300781 70.46875 -48.101562 71.5625 -49.78125 Z M 28.75 -50.96875 C 28.820312 -54.09375 28.785156 -55.65625 28.640625 -55.65625 C 28.492188 -55.65625 27.515625 -54.875 25.703125 -53.3125 C 23.890625 -51.75 22.984375 -50.878906 22.984375 -50.703125 C 22.984375 -50.523438 23.867188 -49.691406 25.640625 -48.203125 C 27.421875 -46.710938 28.382812 -46.003906 28.53125 -46.078125 C 28.601562 -46.222656 28.675781 -47.851562 28.75 -50.96875 Z M 21.453125 -80.609375 C 21.453125 -80.960938 21.488281 -81.140625 21.5625 -81.140625 C 21.707031 -81.140625 22.144531 -80.960938 22.875 -80.609375 C 24.101562 -80.097656 25.082031 -79.550781 25.8125 -78.96875 C 26.832031 -78.3125 27.921875 -77.691406 29.078125 -77.109375 C 30.023438 -76.679688 30.644531 -76.300781 30.9375 -75.96875 C 31.226562 -75.644531 31.300781 -75.300781 31.15625 -74.9375 C 31.007812 -74.570312 29.773438 -73.445312 27.453125 -71.5625 C 25.347656 -69.75 23.09375 -67.753906 20.6875 -65.578125 C 18.007812 -63.171875 16.671875 -62.113281 16.671875 -62.40625 C 16.671875 -62.550781 16.773438 -62.84375 16.984375 -63.28125 C 17.421875 -64.082031 17.53125 -64.484375 17.3125 -64.484375 C 17.09375 -64.484375 16.691406 -64.191406 16.109375 -63.609375 C 15.535156 -63.023438 15.25 -62.625 15.25 -62.40625 C 15.25 -62.050781 15.570312 -61.597656 16.21875 -61.046875 C 16.875 -60.503906 17.601562 -60.125 18.40625 -59.90625 C 19.28125 -59.613281 19.898438 -59.285156 20.265625 -58.921875 C 20.617188 -58.628906 21.050781 -58.59375 21.5625 -58.8125 C 22.070312 -59.03125 23.269531 -59.757812 25.15625 -61 C 27.40625 -62.445312 28.75 -63.460938 29.1875 -64.046875 C 29.625 -64.628906 29.84375 -65.71875 29.84375 -67.3125 C 29.84375 -68.257812 29.894531 -68.785156 30 -68.890625 C 30.113281 -69.003906 30.425781 -68.988281 30.9375 -68.84375 C 31.800781 -68.695312 32.488281 -68.550781 33 -68.40625 C 33.726562 -68.257812 34.203125 -67.929688 34.421875 -67.421875 C 34.710938 -66.984375 35.546875 -66.4375 36.921875 -65.78125 C 38.304688 -65.132812 39.25 -64.554688 39.75 -64.046875 C 40.113281 -63.535156 40.3125 -63.148438 40.34375 -62.890625 C 40.382812 -62.640625 40.257812 -62.046875 39.96875 -61.109375 C 39.25 -58.054688 38.632812 -52.972656 38.125 -45.859375 C 37.976562 -44.253906 37.921875 -43.253906 37.953125 -42.859375 C 37.992188 -42.460938 38.160156 -42.191406 38.453125 -42.046875 C 38.960938 -41.898438 39.722656 -42.191406 40.734375 -42.921875 C 41.609375 -43.566406 44.441406 -45.304688 49.234375 -48.140625 C 50.460938 -48.941406 52.492188 -50.191406 55.328125 -51.890625 C 58.160156 -53.597656 60.015625 -54.707031 60.890625 -55.21875 C 68.953125 -60.082031 73.269531 -62.515625 73.84375 -62.515625 C 74.207031 -62.515625 75.257812 -62.003906 77 -60.984375 C 78.75 -59.972656 80.203125 -59.035156 81.359375 -58.171875 C 82.597656 -57.296875 83.546875 -56.675781 84.203125 -56.3125 C 84.554688 -56.164062 84.820312 -55.984375 85 -55.765625 C 85.1875 -55.546875 85.242188 -55.398438 85.171875 -55.328125 C 85.023438 -55.109375 84.15625 -54.601562 82.5625 -53.8125 C 80.894531 -53.007812 79.007812 -51.921875 76.90625 -50.546875 C 75.300781 -49.453125 74.460938 -48.941406 74.390625 -49.015625 C 74.316406 -49.085938 74.863281 -49.738281 76.03125 -50.96875 C 76.75 -51.769531 77.039062 -52.171875 76.90625 -52.171875 C 76.613281 -52.171875 75.59375 -51.375 73.84375 -49.78125 L 71.34375 -47.15625 L 72.765625 -45.75 C 73.628906 -44.726562 74.828125 -43.785156 76.359375 -42.921875 C 77.222656 -42.484375 77.800781 -42.132812 78.09375 -41.875 C 78.382812 -41.625 78.65625 -41.367188 78.90625 -41.109375 C 79.164062 -40.859375 79.257812 -40.425781 79.1875 -39.8125 C 79.113281 -39.195312 79.003906 -38.613281 78.859375 -38.0625 C 78.710938 -37.519531 78.457031 -36.5625 78.09375 -35.1875 C 71.707031 -14.125 68.945312 -3.59375 69.8125 -3.59375 C 70.539062 -3.59375 72.703125 -4.375 76.296875 -5.9375 C 79.890625 -7.5 81.90625 -8.570312 82.34375 -9.15625 C 83.070312 -10.09375 83.4375 -16.476562 83.4375 -28.3125 C 83.4375 -35.507812 83.523438 -39.234375 83.703125 -39.484375 C 83.890625 -39.734375 84.269531 -38.445312 84.84375 -35.625 L 84.84375 -35.515625 L 85.609375 -32.125 C 85.609375 -32.195312 85.644531 -32.632812 85.71875 -33.4375 L 85.9375 -35.515625 L 87.46875 -30.390625 C 88.625 -26.460938 90.253906 -21.488281 92.359375 -15.46875 C 94.617188 -8.863281 95.75 -5.195312 95.75 -4.46875 C 95.75 -3.59375 95.273438 -2.789062 94.328125 -2.0625 C 92.734375 -0.757812 90.03125 0.613281 86.21875 2.0625 C 82.40625 3.519531 79.082031 4.429688 76.25 4.796875 C 72.46875 5.304688 68.21875 4.941406 63.5 3.703125 C 61.90625 3.191406 60.816406 2.71875 60.234375 2.28125 C 59.648438 1.851562 59.140625 1.09375 58.703125 0 C 58.410156 -0.726562 58.265625 -1.378906 58.265625 -1.953125 C 58.265625 -2.535156 58.375 -3.554688 58.59375 -5.015625 C 59.175781 -9.367188 60.628906 -16.117188 62.953125 -25.265625 C 64.191406 -29.703125 64.753906 -31.988281 64.640625 -32.125 C 64.535156 -32.269531 63.613281 -31.582031 61.875 -30.0625 C 60.707031 -29.113281 59.921875 -28.550781 59.515625 -28.375 C 59.117188 -28.195312 58.632812 -28.210938 58.0625 -28.421875 C 58.0625 -28.421875 58.023438 -28.421875 57.953125 -28.421875 C 56.710938 -28.929688 55.890625 -28.929688 55.484375 -28.421875 C 55.085938 -27.921875 54.457031 -26 53.59375 -22.65625 C 53.519531 -22.363281 53.445312 -22.179688 53.375 -22.109375 C 52.28125 -18.046875 50.898438 -13.398438 49.234375 -8.171875 C 47.566406 -2.941406 46.550781 -0.109375 46.1875 0.328125 C 45.96875 0.617188 45.675781 0.742188 45.3125 0.703125 C 44.945312 0.671875 44.148438 0.507812 42.921875 0.21875 C 41.316406 -0.144531 40.28125 -0.523438 39.8125 -0.921875 C 39.34375 -1.328125 38.960938 -2.070312 38.671875 -3.15625 C 38.523438 -3.8125 38.34375 -5.15625 38.125 -7.1875 C 37.90625 -9.21875 37.722656 -11.085938 37.578125 -12.796875 C 37.429688 -14.503906 37.429688 -15.320312 37.578125 -15.25 C 37.796875 -15.101562 37.90625 -14.882812 37.90625 -14.59375 C 37.90625 -14.300781 38.050781 -13.628906 38.34375 -12.578125 C 38.632812 -11.523438 38.941406 -10.546875 39.265625 -9.640625 C 39.585938 -8.734375 39.75 -8.351562 39.75 -8.5 C 40.1875 -8.789062 41.601562 -12.78125 44 -20.46875 C 46.394531 -28.164062 47.882812 -33.070312 48.46875 -35.1875 C 48.539062 -35.757812 48.539062 -36.097656 48.46875 -36.203125 C 48.394531 -36.316406 48.03125 -36.375 47.375 -36.375 C 44.832031 -36.445312 43.347656 -36.664062 42.921875 -37.03125 C 42.628906 -37.25 42.375 -37.285156 42.15625 -37.140625 C 41.863281 -36.992188 41.265625 -37.101562 40.359375 -37.46875 C 39.453125 -37.832031 38.742188 -38.234375 38.234375 -38.671875 C 37.867188 -38.960938 37.613281 -38.742188 37.46875 -38.015625 C 37.394531 -37.578125 37.359375 -36.742188 37.359375 -35.515625 C 37.066406 -32.972656 36.921875 -24.785156 36.921875 -10.953125 C 36.921875 2.878906 36.8125 9.867188 36.59375 10.015625 C 36.445312 10.234375 35.976562 10.160156 35.1875 9.796875 C 34.382812 9.515625 33.472656 9.335938 32.453125 9.265625 C 31.367188 9.191406 30.789062 8.9375 30.71875 8.5 C 30.570312 8.0625 30.351562 7.988281 30.0625 8.28125 C 29.332031 8.863281 28.679688 8.425781 28.109375 6.96875 C 27.742188 6.03125 27.5625 3.34375 27.5625 -1.09375 L 27.5625 -7.734375 L 24.9375 -10.125 C 23.414062 -11.507812 22.835938 -12.203125 23.203125 -12.203125 C 23.421875 -12.203125 23.925781 -12.054688 24.71875 -11.765625 C 24.9375 -11.765625 24.972656 -11.800781 24.828125 -11.875 C 24.398438 -12.675781 23.203125 -13.691406 21.234375 -14.921875 C 21.015625 -14.992188 20.867188 -15.066406 20.796875 -15.140625 C 19.710938 -15.722656 19.171875 -16.125 19.171875 -16.34375 C 19.171875 -16.488281 19.609375 -16.414062 20.484375 -16.125 C 21.421875 -15.90625 21.960938 -15.847656 22.109375 -15.953125 C 22.253906 -16.066406 21.800781 -17.007812 20.75 -18.78125 C 19.695312 -20.5625 19.023438 -21.5625 18.734375 -21.78125 C 18.515625 -22 18.332031 -21.890625 18.1875 -21.453125 C 18.113281 -21.234375 17.859375 -16.953125 17.421875 -8.609375 C 16.992188 -0.253906 16.722656 3.957031 16.609375 4.03125 C 16.503906 4.101562 15.976562 3.972656 15.03125 3.640625 C 14.082031 3.316406 13.320312 3.15625 12.75 3.15625 C 12.238281 3.226562 11.890625 3.097656 11.703125 2.765625 C 11.523438 2.441406 11.179688 2.316406 10.671875 2.390625 C 10.304688 2.460938 10.03125 2.40625 9.84375 2.21875 C 9.664062 2.039062 9.523438 1.515625 9.421875 0.640625 C 9.316406 -0.222656 9.296875 -1.328125 9.359375 -2.671875 C 9.429688 -4.015625 9.539062 -5.992188 9.6875 -8.609375 C 10.269531 -16.734375 10.46875 -20.796875 10.28125 -20.796875 C 10.101562 -20.796875 9.867188 -20.617188 9.578125 -20.265625 C 9.367188 -20.046875 9.082031 -19.972656 8.71875 -20.046875 C 8.351562 -20.117188 7.625 -20.367188 6.53125 -20.796875 C 5.082031 -21.523438 4.046875 -22.144531 3.421875 -22.65625 C 2.804688 -23.164062 2.316406 -23.816406 1.953125 -24.609375 C 1.816406 -25.117188 1.765625 -25.445312 1.796875 -25.59375 C 1.835938 -25.738281 2 -25.8125 2.28125 -25.8125 C 2.863281 -25.8125 4.460938 -26.46875 7.078125 -27.78125 L 11 -29.734375 L 11.21875 -32.453125 C 11.289062 -34.128906 11.507812 -39.101562 11.875 -47.375 L 12.421875 -59.796875 L 11.546875 -61.109375 C 10.523438 -62.773438 10.378906 -63.609375 11.109375 -63.609375 C 11.179688 -63.609375 11.253906 -63.570312 11.328125 -63.5 C 12.421875 -63.132812 13.144531 -63.0625 13.5 -63.28125 C 13.863281 -63.5 14.554688 -64.515625 15.578125 -66.328125 C 20.078125 -74.097656 22.144531 -78.382812 21.78125 -79.1875 C 21.5625 -79.695312 21.453125 -80.171875 21.453125 -80.609375 Z M 21.453125 -80.609375 "/></g></g></g></svg>